<?xml version="1.0" encoding="utf-8"?>
<!-- Generator: Adobe Illustrator 22.1.0, SVG Export Plug-In . SVG Version: 6.00 Build 0)  -->
<svg version="1.1" xmlns="http://www.w3.org/2000/svg" xmlns:xlink="http://www.w3.org/1999/xlink" x="0px" y="0px"
	 viewBox="0 0 141.6 61.8" style="enable-background:new 0 0 141.6 61.8;" xml:space="preserve" width="150" height="65"> 
<style type="text/css">
	.st0{fill:#C1B086;}
	.st1{fill:#121516;}
</style>
<g id="Layer_2">
	<g>
		<path class="st0" d="M41.1,17.8c-3.5-3.5-8.2-5.5-13.2-5.5s-9.7,1.9-13.2,5.5S9.3,26.1,9.3,31c0,5,1.9,9.7,5.5,13.2
			s8.2,5.5,13.2,5.5s9.7-1.9,13.2-5.5S46.6,36,46.6,31S44.7,21.4,41.1,17.8z M27.9,49.5C17.7,49.5,9.5,41.2,9.5,31
			s8.3-18.5,18.5-18.5S46.4,20.9,46.4,31S38.1,49.5,27.9,49.5z"/>
		<path class="st0" d="M30.5,11.2C30.4,11.2,30.7,11.2,30.5,11.2L30.5,11.2z"/>
		<path class="st0" d="M40.5,11.4C40.6,11.1,40.5,11.7,40.5,11.4L40.5,11.4z"/>
		<path class="st0" d="M32.4,11.8c0.1,0,0.2,0.1,0.3,0.1c0,0,0,0,0,0c0,0,0,0,0,0c0,0,0.1,0,0.1,0c0.1,0,0.1,0,0.2,0
			c0.1,0,0.1-0.1,0.2-0.1c0.1,0,0.1-0.1,0.2-0.1c0.1-0.1,0.2-0.2,0.3-0.3c0.1-0.1,0.2-0.2,0.4-0.3c0.1-0.1,0.3-0.1,0.5-0.1
			c0.1,0,0.2,0,0.3,0c0,0,0.1,0,0.1,0c0,0,0.1,0,0.1,0.1c0.1,0,0.2,0.1,0.2,0.2c0,0,0,0-0.1,0c0,0-0.1,0-0.1,0
			c-0.1,0.1-0.2,0.1-0.3,0.2c-0.1,0.1-0.1,0.2-0.2,0.3c0,0.1-0.1,0.3-0.1,0.4c0,0.1,0.1,0.3,0.1,0.4c0.1,0.1,0.2,0.2,0.3,0.2
			c0.1,0,0.3,0,0.4,0c0.1-0.1,0.2-0.1,0.3-0.2c0.1-0.1,0.1-0.2,0.2-0.3c0-0.1,0-0.2,0-0.3c0-0.2-0.2-0.4-0.3-0.6
			c0.2,0,0.4-0.1,0.5-0.1c0.1,0,0.1,0,0.2,0c0.1,0,0.1,0,0.2,0c0,0,0.1,0,0.1,0c0,0,0.1,0,0.1,0c0.4,0.1,0.7,0.3,1,0.5
			c0.3,0.2,0.6,0.4,0.8,0.6c0.5,0.4,0.8,0.7,1,1c0.2,0.2,0.4,0.4,0.4,0.4c0,0,0,0-0.1-0.1c-0.1-0.1-0.1-0.2-0.3-0.3
			c-0.2-0.3-0.6-0.6-1-1c-0.2-0.2-0.5-0.4-0.8-0.6c-0.3-0.2-0.6-0.4-1-0.5c0,0-0.1,0-0.2,0c-0.1,0-0.1,0-0.2,0c-0.1,0-0.1,0-0.2,0
			c-0.1,0-0.1,0-0.2,0c-0.2,0-0.4,0-0.7,0.1c0,0,0,0,0,0c-0.1-0.1-0.2-0.2-0.3-0.3c0,0-0.1,0-0.1-0.1c0,0-0.1,0-0.1,0
			c-0.1,0-0.2,0-0.3,0c-0.2,0-0.4,0.1-0.5,0.1c-0.2,0.1-0.3,0.2-0.4,0.3c-0.1,0.1-0.2,0.2-0.3,0.3c-0.1,0-0.1,0.1-0.2,0.1
			c-0.1,0-0.1,0.1-0.2,0.1c-0.1,0-0.1,0-0.2,0c0,0-0.1,0-0.1,0c0,0,0,0,0,0c0,0,0,0,0,0C32.6,11.8,32.5,11.8,32.4,11.8
			c-0.1-0.1-0.2-0.2-0.3-0.3C32,11.5,32,11.5,32,11.5c0,0,0,0,0.1,0.1C32.1,11.7,32.2,11.8,32.4,11.8z M35.7,12.3
			c0,0.1-0.1,0.2-0.1,0.3c-0.1,0.1-0.1,0.2-0.2,0.2c-0.1,0-0.2,0-0.3,0c-0.2-0.1-0.3-0.3-0.3-0.5c0-0.1,0-0.2,0-0.3
			c0-0.1,0.1-0.2,0.2-0.3c0.1-0.1,0.1-0.1,0.2-0.2c0,0,0,0,0.1,0c0,0,0,0,0.1,0c0,0,0,0,0.1,0c0,0,0,0,0.1,0.1
			c0.1,0.1,0.2,0.3,0.3,0.5C35.7,12.1,35.7,12.2,35.7,12.3z"/>
		<path class="st0" d="M39,9.7c-0.3-0.5-0.7-0.5-0.7-0.5s-0.1,0.2,0,0.7c0.1,0.5,0.5,1.2,1.4,2.3C39.7,12.2,39.6,10.6,39,9.7z"/>
		<path class="st0" d="M49.9,14.7C50,14.7,49.4,14.6,49.9,14.7L49.9,14.7z"/>
		<path class="st0" d="M46,18.2c-0.6,0.4-0.4,2.2-0.2,3c0,0-0.2-1.6,0.7-2.4c0.9-0.8-0.2-1.5-0.2-1.5S46.6,17.8,46,18.2z"/>
		<path class="st0" d="M51.8,22.5c-1.6,0-3.1,1.3-3.6,2.8c0.1-0.3,0.3-1.6-0.7-2c0,0,0.5,0.5,0,1c-0.5,0.5-0.1,1.7,0.5,2.5
			c0.1,0.9,0.4,1.9,1,2.6c0.3,0.4,0.7,0.8,1.2,1c0.1,0,1.4,0.4,1.4,0.2c0,0-1-0.2-1.1-0.2c-0.4-0.2-0.8-0.5-1.1-0.8
			c-0.5-0.7-0.9-1.6-1-2.4c-0.3-2,1.1-3.8,3.1-4.2c1.5-0.2,3.1,1,3.3,2.5c-0.2,0.2-0.9,0.8-1.8,0.4c0,0,0.9,1.4,1.8,0.3
			c0,0.1,0,0.2-0.1,0.2c-0.3,0.9-1.1,1.7-2.1,1.7c-0.8,0-1.7-0.7-1.8-1.6c0-0.2,0-0.4,0-0.5c0.1-0.2,0.3-0.5,0.6-0.7
			c1.1-0.9,0.4-0.4,0.7-1.3c0.2-0.8-3.6,1.5-1.2,3.8c0.4,0.5,1.1,0.8,1.8,0.7c-0.1,0.1-0.2,0.2-0.3,0.3c-0.1,0.2-0.2,0.4-0.3,0.7
			c0,0.1,0,0.3,0,0.4c0,0.1,0.1,0.3,0.1,0.4c0.1,0.3,0.4,0.5,0.7,0.5c0.1,0,0.3,0.1,0.5,0c0.2,0,0.3-0.1,0.4-0.2
			c0.3-0.2,0.4-0.5,0.5-0.8c0-0.1,0-0.3-0.1-0.4c-0.1-0.1-0.1-0.3-0.3-0.4c-0.1-0.1-0.3-0.2-0.4-0.2c-0.1,0-0.3,0-0.4,0.1
			C53.1,29,53,29.1,53,29.2c-0.1,0.1-0.1,0.2-0.1,0.3c0,0.2,0,0.2,0.1,0.2c0,0,0-0.1,0-0.2c0-0.1,0.1-0.3,0.3-0.3
			c0.2-0.1,0.4-0.1,0.6,0.1c0.1,0.1,0.2,0.1,0.2,0.2c0,0.1,0.1,0.2,0,0.3c0,0.2-0.1,0.4-0.3,0.5c-0.2,0.1-0.4,0.2-0.7,0.1
			c-0.2-0.1-0.5-0.2-0.6-0.4c-0.1-0.1-0.1-0.2-0.1-0.3c0-0.1,0-0.2,0-0.3c0-0.2,0.1-0.4,0.2-0.6c0.1-0.2,0.2-0.3,0.3-0.4
			c0.3,0,0.7-0.1,1-0.3c1.1-0.6,1.7-2,1.3-3.2c-0.3-0.9-1-1.7-1.8-2.1l0,0c0,0,1.7,0.7,2.2-0.8c0,0-0.4,0.5-1.1,0
			C53.7,21.5,52.7,21.9,51.8,22.5z"/>
		<path class="st0" d="M32.7,6.8c0,0,1.3,0,1.8-1C34.5,5.8,33.4,5.6,32.7,6.8z"/>
		<path class="st0" d="M31.1,2.5C31.1,2.5,31.1,2.5,31.1,2.5C31.1,2.5,31.1,2.5,31.1,2.5C31.1,2.5,31.1,2.5,31.1,2.5z"/>
		<path class="st0" d="M51.3,29.9c-0.3-0.1-0.8-0.3-1.2-0.6c-0.2-0.2-0.4-0.4-0.6-0.7c-0.2-0.3-0.3-0.6-0.4-1
			c-0.1-0.4-0.1-0.8,0-1.2c0.1-0.4,0.2-0.8,0.4-1.2c0.2-0.4,0.5-0.7,0.9-1c0.3-0.2,0.7-0.4,1.1-0.5c0.4-0.1,0.8-0.1,1.1-0.1
			c0.3,0,0.6,0.2,0.8,0.4c0.2,0.2,0.3,0.5,0.3,0.7c0,0.2,0,0.4-0.1,0.6c-0.1,0.1-0.2,0.2-0.3,0.2c0,0-0.1,0-0.1,0c0,0,0,0,0,0
			c0,0,0,0,0,0c0,0,0.1,0,0.1,0c0.1,0,0.2-0.1,0.3-0.2c0.1-0.1,0.2-0.4,0.2-0.6c0-0.2-0.1-0.5-0.3-0.8c-0.1-0.1-0.2-0.2-0.4-0.3
			c-0.1-0.1-0.3-0.1-0.5-0.2c-0.4,0-0.7,0-1.1,0.1c-0.4,0.1-0.8,0.3-1.2,0.5c-0.4,0.3-0.7,0.6-0.9,1c-0.2,0.4-0.4,0.8-0.5,1.3
			c-0.1,0.4,0,0.9,0,1.3c0.1,0.4,0.2,0.8,0.4,1.1c0.2,0.3,0.4,0.5,0.7,0.7C50.5,29.7,51,29.8,51.3,29.9c0.1,0.1,0.3,0.1,0.4,0.1
			c0.1,0,0.1,0,0.1,0C51.8,30,51.6,30,51.3,29.9z"/>
		<path class="st0" d="M25.3,11.2C25.1,11.2,25.5,11.2,25.3,11.2L25.3,11.2z"/>
		<path class="st0" d="M15.3,11.4C15.4,11.7,15.2,11.1,15.3,11.4L15.3,11.4z"/>
		<path class="st0" d="M23.5,11.8c-0.1,0-0.2,0.1-0.3,0.1c0,0,0,0,0,0c0,0,0,0,0,0c0,0-0.1,0-0.1,0c-0.1,0-0.1,0-0.2,0
			c-0.1,0-0.1-0.1-0.2-0.1c-0.1,0-0.1-0.1-0.2-0.1c-0.1-0.1-0.2-0.2-0.3-0.3c-0.1-0.1-0.3-0.2-0.4-0.3c-0.2-0.1-0.3-0.1-0.5-0.1
			c-0.1,0-0.2,0-0.3,0c0,0-0.1,0-0.1,0c-0.1,0-0.1,0-0.1,0.1c-0.1,0.1-0.2,0.2-0.3,0.3c0,0,0,0,0,0c-0.2-0.1-0.4-0.1-0.7-0.1
			c-0.1,0-0.1,0-0.2,0c-0.1,0-0.1,0-0.2,0c-0.1,0-0.1,0-0.2,0c-0.1,0-0.1,0-0.2,0c-0.4,0.1-0.7,0.3-1,0.5c-0.3,0.2-0.6,0.4-0.8,0.6
			c-0.5,0.4-0.8,0.8-1,1c-0.1,0.1-0.2,0.2-0.3,0.3c-0.1,0.1-0.1,0.1-0.1,0.1c0,0,0.1-0.1,0.4-0.4c0.2-0.2,0.6-0.6,1-1
			c0.2-0.2,0.5-0.4,0.8-0.6c0.3-0.2,0.6-0.4,1-0.5c0,0,0.1,0,0.1,0c0,0,0.1,0,0.1,0c0,0,0.1,0,0.2,0c0.1,0,0.1,0,0.2,0
			c0.2,0,0.4,0,0.5,0.1C20.1,11.6,20,11.8,20,12c0,0.1,0,0.2,0,0.3c0,0.1,0.1,0.2,0.2,0.3c0.1,0.1,0.2,0.2,0.3,0.2
			c0.1,0.1,0.3,0.1,0.4,0c0.1,0,0.2-0.1,0.3-0.2c0.1-0.1,0.1-0.2,0.1-0.4c0-0.1,0-0.3-0.1-0.4c0-0.1-0.1-0.2-0.2-0.3
			c-0.1-0.1-0.2-0.2-0.3-0.2c0,0-0.1,0-0.1,0c0,0,0,0-0.1,0c0.1-0.1,0.1-0.1,0.2-0.2c0,0,0.1,0,0.1-0.1c0,0,0.1,0,0.1,0
			c0.1,0,0.2,0,0.3,0c0.2,0,0.3,0,0.5,0.1c0.1,0.1,0.3,0.2,0.4,0.3c0.1,0.1,0.2,0.2,0.3,0.3c0.1,0,0.1,0.1,0.2,0.1
			c0.1,0,0.1,0.1,0.2,0.1c0.1,0,0.1,0,0.2,0c0,0,0.1,0,0.1,0c0,0,0,0,0,0c0,0,0,0,0,0C23.3,11.9,23.4,11.9,23.5,11.8
			c0.2,0,0.3-0.1,0.3-0.2c0.1-0.1,0.1-0.1,0.1-0.1c0,0,0,0-0.1,0.1C23.7,11.6,23.6,11.7,23.5,11.8z M20.5,11.5
			C20.5,11.5,20.6,11.5,20.5,11.5c0.1,0,0.1,0.1,0.1,0.1c0.1,0,0.2,0.1,0.2,0.2c0.1,0.1,0.1,0.2,0.2,0.3c0,0.1,0.1,0.2,0,0.3
			c0,0.2-0.2,0.4-0.3,0.5c-0.1,0-0.2,0-0.3,0c-0.1,0-0.2-0.1-0.2-0.2c-0.1-0.1-0.1-0.2-0.1-0.3c0-0.1,0-0.2,0-0.3
			c0-0.2,0.1-0.4,0.3-0.5C20.4,11.5,20.4,11.5,20.5,11.5C20.5,11.5,20.5,11.5,20.5,11.5z"/>
		<path class="st0" d="M16.9,9.7c-0.6,0.9-0.7,2.5-0.7,2.5c0.9-1.1,1.3-1.8,1.4-2.3c0.1-0.5,0-0.7,0-0.7S17.2,9.2,16.9,9.7z"/>
		<path class="st0" d="M6,14.7C6.5,14.6,5.9,14.7,6,14.7L6,14.7z"/>
		<path class="st0" d="M9.8,18.2c-0.6-0.4-0.3-0.8-0.3-0.8s-1.1,0.6-0.2,1.5c0.9,0.8,0.7,2.4,0.7,2.4C10.2,20.4,10.4,18.5,9.8,18.2z
			"/>
		<path class="st0" d="M2.6,22.8L2.6,22.8C1.7,23.2,1,24,0.8,24.9c-0.4,1.2,0.2,2.6,1.3,3.2c0.2,0.1,0.4,0.2,0.6,0.2
			c0.1,0.1,0.2,0.2,0.3,0.4c0.1,0.2,0.2,0.4,0.2,0.6c0,0.1,0,0.2,0,0.4C3.1,29.9,3,30,3,30.1c-0.1,0.2-0.4,0.3-0.6,0.4
			c-0.2,0-0.5,0-0.7-0.1c-0.2-0.1-0.3-0.3-0.3-0.5c0-0.1,0-0.2,0-0.3c0-0.1,0.1-0.2,0.2-0.2c0.1-0.1,0.2-0.1,0.3-0.1
			c0.1,0,0.2,0,0.3,0c0.1,0,0.2,0.1,0.2,0.1c0.1,0.1,0.1,0.1,0.1,0.2c0,0.1,0,0.2,0,0.2c0,0,0-0.1,0-0.2c0-0.1,0-0.1-0.1-0.2
			c0-0.1-0.1-0.2-0.2-0.2c-0.1,0-0.1-0.1-0.2-0.1c0,0-0.1,0-0.1,0c0,0-0.1,0-0.1,0c-0.1,0-0.1,0-0.2,0c-0.1,0-0.1,0-0.2,0.1
			c-0.1,0.1-0.3,0.2-0.3,0.3C1.1,29.5,1,29.7,1,29.8c0,0.3,0.2,0.6,0.4,0.8c0.1,0.1,0.3,0.1,0.4,0.2c0.2,0,0.3,0,0.5,0
			c0.3-0.1,0.6-0.3,0.7-0.5c0.1-0.1,0.1-0.3,0.2-0.4c0-0.1,0-0.3,0-0.4c0-0.3-0.1-0.5-0.3-0.7c-0.1-0.1-0.2-0.2-0.3-0.3
			c0.8,0.2,1.6-0.1,2.2-0.7c2.4-2.3-1.4-4.6-1.2-3.8c0.2,0.9-0.5,0.4,0.7,1.3C4.8,25.5,5,25.7,5.1,26c0.1,0.2,0,0.4,0,0.5
			c-0.1,0.9-1,1.5-1.8,1.6c-1,0-1.9-0.8-2.1-1.7c0-0.1,0-0.2-0.1-0.2c0.9,1.2,1.8-0.3,1.8-0.3c-0.9,0.4-1.6-0.2-1.8-0.4
			C1.3,24,2.9,22.8,4.4,23c2,0.4,3.4,2.2,3.1,4.2c-0.1,0.8-0.4,1.7-1,2.4c-0.3,0.4-0.7,0.7-1.1,0.8c-0.1,0-1.1,0.2-1.1,0.2
			c0,0.2,1.3-0.1,1.4-0.2c0.5-0.2,0.9-0.6,1.2-1c0.6-0.7,0.9-1.7,1-2.6c0.6-0.8,1-2,0.5-2.5c-0.5-0.5,0-1,0-1c-1,0.4-0.7,1.6-0.7,2
			c-0.5-1.6-2-2.8-3.6-2.8c-0.9-0.6-1.9-1-2.6-0.5c-0.7,0.5-1.1,0-1.1,0C0.9,23.5,2.6,22.8,2.6,22.8z"/>
		<path class="st0" d="M21.4,5.8c0.5,0.9,1.8,1,1.8,1C22.5,5.6,21.4,5.8,21.4,5.8z"/>
		<path class="st0" d="M24.8,2.5C24.8,2.5,24.8,2.5,24.8,2.5C24.8,2.5,24.8,2.5,24.8,2.5C24.8,2.5,24.8,2.5,24.8,2.5z"/>
		<path class="st0" d="M5.8,29.3c0.2-0.2,0.5-0.4,0.7-0.7c0.2-0.3,0.3-0.7,0.4-1.1C7,27.1,7,26.7,7,26.2c-0.1-0.4-0.2-0.9-0.5-1.3
			c-0.2-0.4-0.6-0.7-0.9-1c-0.4-0.3-0.8-0.4-1.2-0.5c-0.4-0.1-0.8-0.1-1.1-0.1c-0.2,0-0.4,0.1-0.5,0.2c-0.1,0.1-0.3,0.2-0.4,0.3
			c-0.2,0.2-0.3,0.5-0.3,0.8c0,0.2,0.1,0.5,0.2,0.6c0.1,0.1,0.3,0.2,0.3,0.2c0,0,0.1,0,0.1,0c0,0,0,0,0,0c0,0,0,0,0,0
			c0,0-0.1,0-0.1,0c-0.1,0-0.2-0.1-0.3-0.2c-0.1-0.1-0.2-0.3-0.1-0.6c0-0.2,0.1-0.5,0.3-0.7c0.2-0.2,0.5-0.4,0.8-0.4
			c0.3,0,0.7,0,1.1,0.1c0.4,0.1,0.8,0.3,1.1,0.5c0.3,0.2,0.6,0.6,0.9,1c0.2,0.4,0.4,0.8,0.4,1.2c0.1,0.4,0,0.8,0,1.2
			c-0.1,0.4-0.2,0.7-0.4,1C6.2,28.8,6,29,5.8,29.3c-0.5,0.3-1,0.5-1.3,0.6C4.2,30,4,30,4,30c0,0,0,0,0.1,0c0.1,0,0.2,0,0.4-0.1
			C4.9,29.8,5.4,29.7,5.8,29.3z"/>
		<path class="st0" d="M30.5,50.9C30.7,50.9,30.4,50.9,30.5,50.9L30.5,50.9z"/>
		<path class="st0" d="M40.5,50.7C40.5,50.4,40.6,51,40.5,50.7L40.5,50.7z"/>
		<path class="st0" d="M32.4,50.3c0.1,0,0.2-0.1,0.3-0.1c0,0,0,0,0,0c0,0,0,0,0,0c0,0,0.1,0,0.1,0c0.1,0,0.1,0,0.2,0
			c0.1,0,0.1,0.1,0.2,0.1c0.1,0,0.1,0.1,0.2,0.1c0.1,0.1,0.2,0.2,0.3,0.3c0.1,0.1,0.3,0.2,0.4,0.3c0.2,0.1,0.3,0.1,0.5,0.1
			c0.1,0,0.2,0,0.3,0c0,0,0.1,0,0.1,0c0.1,0,0.1,0,0.1-0.1c0.1-0.1,0.2-0.2,0.3-0.3c0,0,0,0,0,0c0.2,0.1,0.4,0.1,0.7,0.1
			c0.1,0,0.1,0,0.2,0c0.1,0,0.1,0,0.2,0c0.1,0,0.1,0,0.2,0c0.1,0,0.1,0,0.2,0c0.4-0.1,0.7-0.3,1-0.5c0.3-0.2,0.6-0.4,0.8-0.6
			c0.5-0.4,0.8-0.8,1-1c0.1-0.1,0.2-0.2,0.3-0.3c0.1-0.1,0.1-0.1,0.1-0.1c0,0-0.1,0.1-0.4,0.4c-0.2,0.2-0.6,0.6-1,1
			c-0.2,0.2-0.5,0.4-0.8,0.6c-0.3,0.2-0.6,0.4-1,0.5c0,0-0.1,0-0.1,0c0,0-0.1,0-0.1,0c0,0-0.1,0-0.2,0c-0.1,0-0.1,0-0.2,0
			c-0.2,0-0.4,0-0.5-0.1c0.1-0.2,0.3-0.3,0.3-0.6c0-0.1,0-0.2,0-0.3c0-0.1-0.1-0.2-0.2-0.3c-0.1-0.1-0.2-0.2-0.3-0.2
			c-0.1-0.1-0.3-0.1-0.4,0c-0.1,0-0.2,0.1-0.3,0.2c-0.1,0.1-0.1,0.2-0.1,0.4c0,0.1,0,0.3,0.1,0.4c0,0.1,0.1,0.2,0.2,0.3
			c0.1,0.1,0.2,0.2,0.3,0.2c0,0,0.1,0,0.1,0c0,0,0,0,0.1,0c-0.1,0.1-0.1,0.1-0.2,0.2c0,0-0.1,0-0.1,0.1c0,0-0.1,0-0.1,0
			c-0.1,0-0.2,0-0.3,0c-0.2,0-0.3,0-0.5-0.1c-0.1-0.1-0.3-0.2-0.4-0.3c-0.1-0.1-0.2-0.2-0.3-0.3c-0.1,0-0.1-0.1-0.2-0.1
			c-0.1,0-0.1-0.1-0.2-0.1c-0.1,0-0.1,0-0.2,0c0,0-0.1,0-0.1,0c0,0,0,0,0,0c0,0,0,0,0,0C32.5,50.2,32.4,50.2,32.4,50.3
			c-0.2,0-0.3,0.1-0.3,0.2C32,50.6,32,50.6,32,50.6c0,0,0,0,0.1-0.1C32.1,50.5,32.2,50.4,32.4,50.3z M35.3,50.6
			C35.3,50.6,35.3,50.6,35.3,50.6c-0.1,0-0.1-0.1-0.1-0.1c-0.1,0-0.2-0.1-0.2-0.2c-0.1-0.1-0.1-0.2-0.2-0.3c0-0.1-0.1-0.2,0-0.3
			c0-0.2,0.2-0.4,0.3-0.5c0.1,0,0.2,0,0.3,0c0.1,0,0.2,0.1,0.2,0.2c0.1,0.1,0.1,0.2,0.1,0.3c0,0.1,0,0.2,0,0.3
			c0,0.2-0.1,0.4-0.3,0.5C35.5,50.6,35.4,50.6,35.3,50.6C35.4,50.6,35.4,50.6,35.3,50.6z"/>
		<path class="st0" d="M39,52.4c0.6-0.9,0.7-2.5,0.7-2.5c-0.9,1.1-1.3,1.8-1.4,2.3c-0.1,0.5,0,0.7,0,0.7S38.7,52.9,39,52.4z"/>
		<path class="st0" d="M49.9,47.4C49.4,47.5,50,47.4,49.9,47.4L49.9,47.4z"/>
		<path class="st0" d="M46,43.9c0.6,0.4,0.3,0.8,0.3,0.8s1.1-0.6,0.2-1.5s-0.7-2.4-0.7-2.4C45.6,41.7,45.4,43.6,46,43.9z"/>
		<path class="st0" d="M53.3,39.3L53.3,39.3c0.9-0.4,1.6-1.2,1.8-2.1c0.4-1.2-0.2-2.6-1.3-3.2c-0.3-0.2-0.7-0.3-1.1-0.3
			c-0.1-0.1-0.2-0.2-0.2-0.3c-0.1-0.2-0.2-0.4-0.2-0.6c0-0.1,0-0.2,0-0.4c0-0.1,0.1-0.2,0.2-0.3c0.1-0.2,0.4-0.3,0.6-0.4
			c0.2,0,0.5,0,0.7,0.1c0.2,0.1,0.3,0.3,0.3,0.5c0,0.1,0,0.2,0,0.3c0,0.1-0.1,0.2-0.2,0.2c-0.1,0.1-0.2,0.1-0.3,0.1
			c-0.1,0-0.2,0-0.3,0c-0.1,0-0.2-0.1-0.2-0.1C53,32.7,53,32.7,53,32.6c0-0.1,0-0.2,0-0.2c0,0,0,0.1,0,0.2c0,0.1,0,0.1,0.1,0.2
			c0,0.1,0.1,0.2,0.2,0.2c0.1,0,0.1,0.1,0.2,0.1c0,0,0.1,0,0.1,0c0,0,0.1,0,0.1,0c0.1,0,0.1,0,0.2,0c0.1,0,0.1,0,0.2-0.1
			c0.1-0.1,0.3-0.2,0.3-0.3c0.1-0.2,0.1-0.3,0.1-0.5c0-0.3-0.2-0.6-0.4-0.8c-0.1-0.1-0.3-0.1-0.4-0.2c-0.2,0-0.3,0-0.5,0
			c-0.3,0.1-0.6,0.3-0.7,0.5c-0.1,0.1-0.1,0.3-0.2,0.4c0,0.1,0,0.3,0,0.4c0,0.3,0.1,0.5,0.3,0.7c0.1,0.1,0.1,0.2,0.2,0.3
			c-0.6,0-1.3,0.2-1.7,0.7c-2.4,2.3,1.4,4.6,1.2,3.8c-0.2-0.9,0.5-0.4-0.7-1.3c-0.3-0.2-0.5-0.5-0.6-0.7c-0.1-0.2,0-0.4,0-0.5
			c0.1-0.9,1-1.5,1.8-1.6c1,0,1.9,0.8,2.1,1.7c0,0.1,0,0.2,0.1,0.2c-0.9-1.2-1.8,0.3-1.8,0.3c0.9-0.4,1.6,0.2,1.8,0.4
			c-0.2,1.5-1.8,2.7-3.3,2.5c-2-0.4-3.4-2.2-3.1-4.2c0.1-0.8,0.4-1.7,1-2.4c0.3-0.4,0.7-0.7,1.1-0.8c0.1,0,1.1-0.2,1.1-0.2
			c0-0.2-1.3,0.1-1.4,0.2c-0.5,0.2-0.9,0.6-1.2,1c-0.6,0.7-0.9,1.7-1,2.6c-0.6,0.8-1,2-0.5,2.5c0.5,0.5,0,1,0,1c1-0.4,0.7-1.6,0.7-2
			c0.5,1.6,2,2.8,3.6,2.8c0.9,0.6,1.9,1,2.6,0.5c0.7-0.5,1.1,0,1.1,0C55,38.6,53.3,39.3,53.3,39.3z"/>
		<path class="st0" d="M34.5,56.3c-0.5-0.9-1.8-1-1.8-1C33.4,56.5,34.5,56.3,34.5,56.3z"/>
		<path class="st0" d="M31.1,59.6C31.1,59.6,31.1,59.6,31.1,59.6C31.1,59.6,31.1,59.6,31.1,59.6C31.1,59.6,31.1,59.6,31.1,59.6z"/>
		<path class="st0" d="M49.5,33.6c0.2-0.3,0.4-0.5,0.6-0.7c0.5-0.4,0.9-0.5,1.2-0.6c0.3-0.1,0.5-0.1,0.5-0.1c0,0,0,0-0.1,0
			c-0.1,0-0.2,0-0.4,0.1c-0.3,0.1-0.8,0.2-1.3,0.6c-0.2,0.2-0.5,0.4-0.7,0.7c-0.2,0.3-0.3,0.7-0.4,1.1c-0.1,0.4-0.1,0.8,0,1.3
			c0.1,0.4,0.2,0.9,0.5,1.3c0.2,0.4,0.6,0.7,0.9,1c0.4,0.3,0.8,0.4,1.2,0.5c0.4,0.1,0.8,0.1,1.1,0.1c0.2,0,0.4-0.1,0.5-0.2
			c0.1-0.1,0.3-0.2,0.4-0.3c0.2-0.2,0.3-0.5,0.3-0.8c0-0.2-0.1-0.5-0.2-0.6c-0.1-0.1-0.3-0.2-0.3-0.2c0,0-0.1,0-0.1,0c0,0,0,0,0,0
			c0,0,0,0,0,0c0,0,0.1,0,0.1,0c0.1,0,0.2,0.1,0.3,0.2c0.1,0.1,0.2,0.3,0.1,0.6c0,0.2-0.1,0.5-0.3,0.7c-0.2,0.2-0.5,0.4-0.8,0.4
			c-0.3,0-0.7,0-1.1-0.1c-0.4-0.1-0.8-0.3-1.1-0.5c-0.3-0.2-0.6-0.6-0.9-1c-0.2-0.4-0.4-0.8-0.4-1.2c-0.1-0.4,0-0.8,0-1.2
			C49.1,34.2,49.3,33.9,49.5,33.6z"/>
		<path class="st0" d="M54,42c-0.1,0-0.3,0-0.5-0.1c-0.2-0.1-0.4-0.2-0.6-0.3c-0.1-0.1-0.3-0.1-0.4-0.1c-0.2,0-0.3,0.1-0.4,0.1
			c-0.1,0.1-0.3,0.2-0.4,0.3c-0.1,0.1-0.2,0.3-0.3,0.4c0,0.1-0.1,0.2-0.1,0.3c0,0,0,0,0,0c-0.3,0-0.6,0-0.9,0c-0.4,0-0.7,0-0.9,0.1
			c0.3-0.2,0.5-0.4,0.7-0.7v0c0.8-0.2,1-0.8,0.9-1.3s0.1-0.7,0.1-0.7c-0.5,0.2-0.7,0.5-0.8,0.8c-0.1-0.9-0.8-1.7-1.8-1.6
			c-0.7,0.1-1.2,0.6-1.3,1.3c0,0.3,0.1,0.5,0.2,0.8l0,0c0,0,0.6,1,1.4,0.5c0.6-0.4,0.1-1,0.1-1c0,0,0,0.5-0.3,0.5c0,0,0-0.4-0.3-0.2
			c-0.3,0.2-0.7,0-0.8-0.2c0-0.1,0-0.2,0-0.3c0.1-0.5,0.5-0.8,1-0.9c1-0.1,1.7,1.1,1.2,2c-0.5,1-1.7,1.2-2.6,0.7
			c-0.4-0.3-0.8-0.7-1-1.1c-0.1-0.3-0.1-0.5-0.2-0.8c0,0,0,0,0,0c0.1-0.3,0.2-0.6,0.3-0.9c0.2-1,0.4-2.1,0.5-3.1c0-0.1,0-0.7,0-1.2
			c0.3-1.3,0.4-2.7,0.4-4s-0.2-2.7-0.4-4c0-0.6,0-1.1,0-1.2c-0.1-1.1-0.2-2.1-0.5-3.1c-0.1-0.3-0.2-0.6-0.3-0.9c0,0,0,0,0,0
			c0-0.3,0.1-0.5,0.2-0.8c0.2-0.5,0.5-0.9,1-1.1c0.9-0.5,2.2-0.4,2.6,0.7c0.5,0.9-0.2,2.1-1.2,2c-0.5,0-0.8-0.4-1-0.9
			c0-0.1,0-0.2,0-0.3c0.1-0.2,0.5-0.3,0.8-0.2c0.3,0.2,0.3-0.2,0.3-0.2c0.3,0,0.3,0.5,0.3,0.5c0.1,0,0.6-0.6-0.1-1
			c-0.9-0.6-1.4,0.5-1.4,0.5l0,0c-0.2,0.2-0.2,0.5-0.2,0.8c0.1,0.7,0.6,1.2,1.3,1.3c1,0.1,1.7-0.7,1.8-1.6c0.1,0.3,0.3,0.6,0.8,0.8
			c0,0-0.2-0.2-0.1-0.7c0-0.5-0.2-1.1-0.9-1.3v0c-0.2-0.3-0.4-0.5-0.7-0.7c0.3,0,0.6,0.1,0.9,0.1c0.3,0,0.5,0,0.9,0c0,0,0,0,0,0
			c0,0.1,0,0.2,0.1,0.3c0.1,0.2,0.2,0.3,0.3,0.4c0.1,0.1,0.2,0.2,0.4,0.3c0.1,0.1,0.3,0.1,0.4,0.1c0.2,0,0.3,0,0.4-0.1
			c0.2-0.1,0.4-0.3,0.6-0.3c0.2-0.1,0.4-0.1,0.5-0.1c0.1,0,0.2,0.1,0.3,0.1c0.1,0,0.1,0.1,0.1,0.1s0,0-0.1-0.1
			c-0.1,0-0.2-0.1-0.3-0.2c-0.1,0-0.2,0-0.2,0c-0.1,0-0.2,0-0.3,0.1c-0.2,0.1-0.4,0.2-0.6,0.3c-0.1,0-0.2,0.1-0.4,0.1
			c-0.1,0-0.3-0.1-0.4-0.1c-0.2-0.2-0.5-0.4-0.6-0.7c0-0.1,0-0.1,0-0.2c0.2,0,0.5-0.1,0.8-0.1c0.2-0.1,0.3-0.1,0.5-0.2
			c0.1-0.1,0.2-0.1,0.2-0.2c0.1-0.1,0.1-0.2,0.1-0.3c0-0.1,0-0.2,0-0.3l0-0.1c0,0,0,0,0-0.1c0,0,0-0.1-0.1-0.1
			c-0.1-0.1-0.2-0.2-0.3-0.2c-0.1,0-0.2,0-0.3,0c-0.1,0-0.1,0-0.2,0.1c0,0-0.1,0-0.1,0.1c-0.1,0.1-0.2,0.1-0.2,0.2
			c-0.1,0.1-0.2,0.3-0.3,0.5c-0.1,0.2-0.1,0.4-0.1,0.6c0,0.1,0,0.1,0,0.2c0,0,0,0,0,0c-0.3,0-0.6,0-0.8,0c-0.3,0-0.6,0-0.9,0
			c0.3-0.1,0.7-0.4,0.8-0.4c0.5-0.4,0.9-1,1.1-1.6c0.1-0.4,0.1-0.9-0.1-1.3l0,0l0-0.5c0,0,0.2-1.4-0.8-1.7c-0.5-0.2-0.6-0.4-0.6-0.4
			c-0.2,0.6,0,1.2,0.3,1.5c-0.1,0-0.2-0.1-0.3-0.1c-0.9-0.3-1.9,0.2-2.2,1c-0.3,0-1.2,0-1.4,0.7c-0.1,0.5-0.3,0.6-0.3,0.6
			c1.2,0.3,1.5-0.8,1.5-0.8c0-0.1,0.1-0.2,0.1-0.2c0,0.2-0.1,0.4,0,0.6c0.1,0.6,0.5,1.1,1.1,1.2c0.3,0.1,0.6,0,0.8-0.1l0,0
			c0,0,1.1-0.6,0.4-1.6c-0.4-0.6-0.4,0.1-0.3,0.3c0,0-0.4-0.2-0.4,0.5c0,0.3-0.3,0.5-0.5,0.5c-0.4,0-0.6-0.4-0.7-0.8
			c-0.2-1.2,1.2-1.7,2.1-1.2c0.8,0.5,1.1,1.5,0.8,2.3c-0.2,0.5-0.5,0.9-0.9,1.2c-0.1,0-0.4,0.3-0.7,0.4c-0.5-0.3-1.2-0.3-1.8-0.1
			c-0.6,0.2-1.1,0.7-1.4,1.3c-0.1,0.2-0.1,0.5-0.2,0.7c-0.2-0.6-0.4-1.1-0.7-1.6c-0.2-0.3-0.4-0.6-0.6-0.9c0.5-0.8,0.5-1.4,0.1-2.6
			c-0.2-0.5,0-0.9,0-0.9c-1.2,0.7-1,1.9-0.6,2.7c-0.2-0.3-0.5-0.6-0.7-0.9c0,0,0.3-1.1,0-2c0,0-0.7,0.7-0.4,1.5c0,0,0,0-0.1-0.1
			c-0.1-0.2-0.3-0.5-0.5-0.9c-0.2-0.4-0.4-0.9-0.6-1.4c-0.2-0.5-0.4-1.2-0.3-1.8c0-0.3,0.1-0.6,0.2-0.9c0.1-0.3,0.3-0.6,0.5-0.7
			c0.1-0.1,0.2-0.2,0.3-0.3c0.1-0.1,0.2-0.1,0.3-0.2c0.2-0.1,0.5-0.1,0.7-0.2c0.4-0.1,0.8,0,1,0c0.2,0,0.4,0,0.4,0
			c0,0-0.1-0.1-0.4-0.1c-0.2,0-0.6-0.1-1.1,0c-0.2,0-0.5,0.1-0.7,0.2c-0.1,0-0.3,0.1-0.4,0.2c-0.1,0.1-0.2,0.2-0.4,0.3
			c-0.2,0.2-0.4,0.5-0.5,0.8c-0.1,0.3-0.2,0.6-0.2,1c0,0.3,0,0.7,0.1,1c0.1,0.3,0.2,0.6,0.3,0.9c0.2,0.6,0.5,1,0.7,1.4c0,0,0,0,0,0
			c-0.9-1.3-1.7-2.8-1.3-4.3c0.6-1.8,3.2-2.4,4.7-1.5c1.5,1,1.9,3.5,0,4.3c-0.1,0.1-0.3,0.1-0.4,0.1c-0.3-0.1-0.6-0.4-0.7-1
			c-0.1-0.9-0.9-0.7-0.8,0c0.1,0.3,0.6,0.8,1.2,1c-0.7,0-1.4-0.3-1.7-1c-0.2-0.4-0.2-0.9,0-1.3c0.3-0.4,1-0.6,1.7-0.4
			c0.9,0.3,0.8,0.8,0.8,0.8c0.5-0.7-0.4-1-0.4-1s0,0,0-0.1c0,0.1,0.7-0.4,0.1-0.8c-0.7-0.5-2.2,1.1-2.2,1.1v0
			c-0.2,0.2-0.3,0.5-0.3,0.8c-0.1,0.9,0.5,1.8,1.4,2.1c1.7,0.5,3.3-0.9,3.2-2.6c0-0.3-0.1-0.6-0.2-0.9c0,0,0.1,0.1,0.1,0.3
			c0.1,0.2,0.2,0.5,0.3,0.8c0,0,0,0.1,0,0.1c0,0,0,0.1,0,0.1c0,0.1,0,0.2,0.1,0.3c0,0.2,0,0.4,0,0.7c0,0,0,0.1,0,0.1
			c0,0,0,0.1,0,0.1c0,0,0,0.1,0,0.1c0,0-0.1,0-0.1,0c-0.1,0-0.2,0.1-0.3,0.2c-0.1,0.1-0.2,0.2-0.3,0.3c0,0.1-0.1,0.1-0.1,0.2
			c0,0.1,0,0.2,0,0.2c0,0.1,0.1,0.2,0.1,0.2c0,0,0.1,0.1,0.1,0.1c0,0,0.1,0,0.1,0c0.1,0,0.2-0.1,0.2-0.1c0.1-0.1,0.1-0.1,0.1-0.2
			c0.1-0.1,0.1-0.3,0.2-0.4c0-0.1,0.1-0.3,0.1-0.4c0,0,0,0,0,0c0.2-0.1,0.3-0.1,0.5-0.1c0.2,0,0.4-0.1,0.6-0.1
			c0.2-0.1,0.3-0.2,0.4-0.3c0-0.1,0-0.2,0-0.2c0-0.1,0-0.1,0-0.2c0-0.1-0.1-0.2-0.1-0.2c0,0-0.1-0.1-0.1-0.1c0,0,0,0,0,0.1
			c0,0,0.1,0.1,0.1,0.2c0,0,0,0.1,0,0.2c0,0.1,0,0.1,0,0.2c-0.1,0.1-0.2,0.2-0.4,0.3c-0.2,0.1-0.4,0.1-0.6,0.1
			c-0.1,0-0.3,0.1-0.4,0.1c0,0,0,0,0,0c0,0,0-0.1,0-0.1c0,0,0-0.1,0-0.1c0-0.3,0-0.5,0-0.7c0-0.1,0-0.2-0.1-0.3c0,0,0-0.1,0-0.1
			c0,0,0-0.1,0-0.1c-0.1-0.4-0.3-0.6-0.4-0.8C47.4,11,47.3,11,47.3,11c-0.3-0.8-1-1.5-1.8-1.9l0,0c0,0,0.1-0.1,0.4,0
			c0.7,0.2,1.3,1.1,3,0.4c0,0-0.5-0.1-0.9-0.7s-1.6-0.7-2.3-0.3C45.6,8.6,45.3,9,45.3,9l0,0c-0.2-0.1-0.4-0.1-0.6-0.1
			C44,8.7,43,8.9,42.3,9.3c-0.9,0.4-1.6,1.2-1.8,2.1c-0.1,0.6,0,1.3,0.2,1.7c0-0.1-0.1-0.2-0.1-0.4c-0.1-0.3-0.2-0.9-0.3-1.5
			c0-0.3,0-0.7,0.1-1c0-0.2,0.1-0.4,0.2-0.5c0-0.1,0.1-0.2,0.1-0.3c0,0,0.1-0.1,0.1-0.1c0,0,0,0,0-0.1l0.1-0.1
			C41,9,41.2,8.8,41.4,8.7c0.1-0.1,0.2-0.1,0.3-0.2c0.1,0,0.1,0,0.2-0.1c0.1,0,0.1,0,0.2-0.1c0.2-0.1,0.4-0.1,0.7-0.2
			c0.2,0,0.5-0.1,0.7-0.1c0.1,0,0.2-0.1,0.3-0.1c0,0,0,0,0,0c0,0,0,0,0,0.1c0,0,0,0,0.1,0.1c0.1,0.1,0.2,0.1,0.3,0.2
			c0,0,0.1,0,0.1,0c0,0,0.1,0,0.1,0c0.1,0,0.1,0,0.1,0c0.2,0,0.3-0.1,0.5-0.2C45,8.1,45.1,8,45.2,7.9c0.1-0.1,0.1-0.1,0.1-0.2
			c0,0,0.1-0.1,0.1-0.1c0.1-0.1,0.2-0.1,0.3-0.2c0.1,0,0.2,0,0.3,0c0.2,0.1,0.3,0.2,0.3,0.2c0.1,0.1,0.1,0.1,0.1,0.1
			c0,0,0,0-0.1-0.1c-0.1-0.1-0.2-0.2-0.3-0.2c-0.1,0-0.2,0-0.3,0c-0.1,0-0.2,0.1-0.3,0.2c-0.1,0-0.1,0.1-0.2,0.1
			c0,0-0.1,0.1-0.1,0.2C45,7.9,44.9,8,44.8,8.1c-0.1,0.1-0.3,0.2-0.4,0.2c0,0-0.1,0-0.1,0c0,0,0,0-0.1,0l-0.1,0
			c-0.1,0-0.2-0.1-0.2-0.1c0,0,0-0.1-0.1-0.1c0.1,0,0.2,0,0.3-0.1c0.1,0,0.2-0.1,0.3-0.2c0.1-0.1,0.2-0.2,0.3-0.3
			c0.1-0.1,0.1-0.3,0-0.4c0-0.1,0-0.1-0.1-0.2c0-0.1-0.1-0.1-0.2-0.1c-0.1,0-0.1,0-0.2,0c-0.1,0-0.1,0-0.2,0.1
			C44,6.8,43.9,6.9,43.9,7c-0.2,0.2-0.3,0.4-0.3,0.6c0,0.1,0,0.2,0,0.3c-0.1,0-0.2,0-0.3,0.1c-0.2,0-0.5,0.1-0.7,0.1
			c-0.2,0-0.5,0.1-0.7,0.2c-0.1,0-0.1,0-0.2,0.1c-0.1,0-0.1,0.1-0.2,0.1c-0.1,0-0.2,0.1-0.3,0.2c-0.2,0.1-0.4,0.3-0.5,0.5l-0.1,0.1
			c0,0,0,0,0,0.1c0,0-0.1,0.1-0.1,0.1c-0.1,0.1-0.1,0.2-0.2,0.3c-0.1,0.2-0.1,0.4-0.2,0.6c0.1-0.6,0.2-1.1,0.2-1.7
			c0-0.2,0-0.3,0-0.5l0,0c0.1-0.3,0.3-0.7,0.6-1c0.4-0.6,0.3-2-0.5-2.1c-0.8-0.1-1-0.7-1-0.7c-0.3,1.2,0.8,1.6,1,2.3
			c0.2,0.7-0.1,1.2-0.1,1.2l0,0c-0.1-0.6-0.3-1.1-0.7-1.5c-0.4-0.5-1-0.8-1.7-0.8c-0.4,0-0.7,0.1-1,0.3c-0.9,0.1-1.9-0.6-2-0.3
			c-0.1,0.3,0,0.5,0.2,0.6c0.6,0.6,1.5,0,1.5,0c-0.2,0.2-0.4,0.6-0.4,0.9c-0.1,0.9,0.6,1.8,1.6,1.7c0.4-0.1,0.8-0.3,0.9-0.7
			c0.1-0.2,0.1-0.6,0.1-0.8c0,0-0.1-0.4-0.3-0.2c0,0-0.3,0-0.3-0.6c0,0-0.3,0.1-0.3,0.9c0,0.8-1.2,0.6-1.3-0.2c0-0.2,0-0.3,0.1-0.4
			c0.3-0.8,1.3-1,2.1-0.7c0.4,0.2,0.8,0.6,0.9,1C40,7.8,40,8.6,39.9,9.4c-0.1,0.8-0.2,1.6,0,2.4c0.2,0.8,0.5,1.6,1,2.3
			c0,0,0.2,0.3,0.4,0.5c0.2,0.4,0.4,0.7,0.6,1c0.3,0.5,0.7,0.9,1,1.4c0,0,0,0,0,0c-0.5-0.6-1.2-1.3-1.6-2c-1-1.4-1.9-2.8-2.9-4.2
			c0,0,0,0,0,0c-0.5-0.7-0.3-0.4-0.1-0.2c-1-1.3-2.1-2.6-3.5-3.3C34,7,33.2,6.9,32.4,7C32.3,7,32,7,31.7,7.1C32,7,32.2,6.9,32.2,6.8
			c0.6-0.5,1.1-1.1,1.2-1.9c0-0.1,0-0.1,0-0.2c0,0,0,0,0,0c0,0,0,0,0.1,0.1c0,0,0.1,0.1,0.1,0.1c0.1,0.1,0.2,0.1,0.4,0.2
			c0.2,0,0.4,0.1,0.6,0c0.1,0,0.2-0.1,0.3-0.1C35,5,35.1,4.9,35.2,4.9c0.2-0.2,0.3-0.4,0.4-0.7c0-0.3-0.1-0.6-0.3-0.8
			c-0.1-0.1-0.2-0.2-0.4-0.3c-0.1,0-0.2,0-0.3,0c-0.1-0.2-0.3-0.3-0.4-0.5C34.1,2.4,34,2.3,34,2.3c0,0,0.1,0.1,0.2,0.3
			c0.1,0.1,0.2,0.3,0.3,0.4c0,0-0.1,0-0.1,0c-0.1,0-0.2,0.1-0.2,0.1c-0.1,0-0.1,0.1-0.2,0.2c-0.1,0.1-0.2,0.3-0.2,0.5
			c0,0.2,0,0.3,0.1,0.5c0.1,0.1,0.2,0.2,0.4,0.3c0.2,0,0.3,0,0.4-0.1c0,0,0.1,0,0.1-0.1c0,0,0.1-0.1,0.1-0.1C35,4.2,35,4.1,35,4
			c0-0.1,0-0.3,0-0.4c0-0.1,0-0.1,0-0.2c0-0.1,0-0.1-0.1-0.2c0-0.1-0.1-0.1-0.1-0.2c0,0,0.1,0,0.1,0c0.1,0,0.2,0.1,0.3,0.2
			c0.2,0.2,0.3,0.5,0.2,0.7c0,0.3-0.1,0.5-0.3,0.6C35,4.9,34.8,5,34.6,5.1c-0.2,0-0.4,0-0.5,0c-0.2,0-0.3-0.1-0.4-0.1
			c-0.2-0.1-0.2-0.2-0.3-0.2c0-0.3,0-0.6-0.1-0.8c0,0,0,0,0,0c0.7-1.4-0.4-2-0.6-2.4c-0.2-0.4-0.1-0.8-0.1-0.8
			c-0.4,0.6-0.5,1.2-0.4,1.7c-0.5-0.3-1.1-0.5-1.8-0.3C29.7,2.3,29.2,3,29,3.7c0,0.1-0.1,0.1-0.1,0.2c-0.1,0.1-0.2,0.2-0.3,0.2
			c-0.1,0.1-0.3,0.1-0.4,0.1c-0.2,0-0.3,0-0.5-0.1c0,0-0.1,0-0.1-0.1c0,0-0.1,0-0.1-0.1c-0.1-0.1-0.1-0.1-0.2-0.2
			c-0.1-0.2-0.2-0.4-0.1-0.6c0-0.1,0-0.2,0.1-0.3c0-0.1,0.1-0.2,0.2-0.2c0.1-0.1,0.3-0.2,0.5-0.2c0.1,0,0.2,0,0.2,0.1
			c0.1,0,0.1,0.1,0.2,0.1c0.1,0.1,0.1,0.3,0.1,0.4c0,0.1,0,0.1,0,0.2c0,0,0,0,0,0c0,0,0,0,0,0c0,0,0,0,0,0.1c0,0-0.1,0.1-0.1,0.1
			c0,0-0.1,0-0.1,0c0,0,0,0-0.1,0c0,0,0,0,0,0c0,0,0,0,0,0c0,0,0,0,0,0c0,0-0.1,0-0.1,0c0,0,0,0,0.1,0c0,0,0,0,0,0c0,0,0,0,0,0
			c0,0,0,0,0.1,0c0,0,0,0,0.1,0c0,0,0.1,0,0.1,0c0,0,0.1-0.1,0.1-0.1c0.1-0.1,0.2-0.2,0.2-0.4c0-0.2,0-0.3-0.2-0.5
			c-0.1-0.1-0.1-0.1-0.2-0.2c-0.1,0-0.2-0.1-0.3-0.1c-0.2,0-0.4,0.1-0.6,0.2c-0.1,0.1-0.2,0.2-0.2,0.3C27,3,27,3.1,26.9,3.3
			c0,0.2,0.1,0.5,0.2,0.7c0.1,0.1,0.1,0.2,0.2,0.2c0,0,0.1,0.1,0.1,0.1c0,0,0.1,0,0.1,0.1c0.2,0.1,0.4,0.1,0.6,0.1
			c0.2,0,0.3-0.1,0.5-0.2C28.8,4.2,28.9,4.1,29,4c0,0,0-0.1,0.1-0.1c0,0.2,0,0.3,0,0.5l0,0C28.6,5,28.9,5.6,29.3,6
			c0.4,0.5,0,0.7,0,0.7c0.3-0.1,0.5-0.2,0.7-0.5c0.2-0.3,0.1-0.6,0-0.8c0.5,0.3,1.1,0.2,1.6-0.2C31.8,5,32,4.6,31.9,4.2c0,0,0,0,0,0
			c0,0,0,0,0,0c-0.1-0.3-0.4-1.2-1.3-0.7c0,0,0.2,0.2,0.5,0.4C31,3.9,31,4,31,4.1c0.1,0.4,0.4,0.8,0.4,0.8c-0.5,0.5-1.3,0.4-1.7-0.1
			c-0.8-1,0.2-2.3,1.3-2.3c-0.1,0-0.3,0,0,0c0.1,0,0.1,0,0,0c1.3,0,2.2,1.5,1.9,2.7c-0.2,0.6-0.6,1.1-1.1,1.6
			c-0.1,0.1-0.7,0.5-1,0.7c-0.2,0.1-0.3,0.1-0.3,0.2c0,0,0,0,0,0c-0.1-0.1-0.2-0.1-0.3-0.2c-0.1-0.1-0.3-0.2-0.6-0.2
			c-0.1,0-0.2,0-0.4,0.1c-0.1,0-0.2,0.1-0.3,0.2c-0.2,0.2-0.4,0.3-0.5,0.5c-0.1,0.2-0.2,0.3-0.3,0.5C28,8.8,27.9,9,27.9,9
			c0,0,0.1-0.2,0.3-0.4c0.1-0.1,0.2-0.3,0.3-0.5c0.1-0.2,0.3-0.3,0.5-0.5c0.1-0.1,0.2-0.1,0.3-0.2c0.1,0,0.2-0.1,0.3-0.1
			c0.2,0,0.4,0.1,0.5,0.1c0.1,0.1,0.2,0.1,0.3,0.2c-0.2,0-0.8,0.4-0.8,0.5c-0.3,0.3-0.6,0.7-0.7,1.2c-0.1,1,0.5,1.9,1.5,1.9
			c0.9,0,1.8-0.8,1.6-1.8c-0.1-0.4-0.3-0.8-0.6-1.2c-0.1-0.1-0.6-0.5-0.8-0.6c0.1,0,0.2-0.1,0.3-0.1c0.5-0.1,1.2-0.3,1.3-0.3
			c0.7-0.1,1.5,0.1,2.1,0.4c1.1,0.5,2.1,1.5,2.9,2.5c0,0-1.9-1.8-3.6-1.2c0,0-0.6,0.3-0.9,0.7c0,0,0.2-0.2,0.8,0.1
			c0.5,0.3,1.3,0.7,2.4,0.4c1.1-0.3,1.6,0.1,1.8,0.4l-0.2-0.2c0.2,0.2,0.4,0.5,0.5,0.7c0.9,1.2,1.7,2.5,2.6,3.7l-0.1-0.1
			c0,0-1.3-1.6-1.9-1.3c-0.6,0.2-0.3,0.6,0,0.8c0.3,0.3,1.9,0.5,2.4,1.2l0,0c0.4,0.6,0.9,1.1,1.3,1.6c0.1,0.1,0.8,0.7,1.2,1
			c0.4,0.6,0.8,1.1,1.2,1.7c0.8,1.4,1.3,3,1.5,4.6c0.1,0.6,0.2,1.2,0.2,1.8c0-0.1,0-0.2,0-0.3c-0.1-0.4-0.2-1-0.5-1.8
			c-0.1-0.4-0.3-0.8-0.4-1.2c0-0.1,0-0.1-0.1-0.2c0-0.1,0-0.1-0.1-0.2c0-0.1-0.1-0.2-0.1-0.3c-0.1-0.2-0.2-0.5-0.3-0.7
			c-0.2-0.5-0.5-0.9-0.8-1.4c-0.1-0.1-0.2-0.2-0.2-0.4c0-0.1-0.1-0.1-0.1-0.2c0-0.1-0.1-0.1-0.1-0.2c-0.1-0.1-0.2-0.2-0.3-0.4
			c-0.1-0.1-0.2-0.2-0.3-0.4c-0.2-0.2-0.4-0.5-0.6-0.7c-0.1-0.1-0.2-0.2-0.3-0.3c-0.1-0.1-0.2-0.2-0.3-0.3c-0.2-0.2-0.4-0.4-0.6-0.6
			c-0.2-0.2-0.4-0.4-0.6-0.5c-0.8-0.7-1.5-1.2-2.2-1.7c-0.2-0.1-0.3-0.2-0.5-0.3C38,14.1,37.9,14,37.8,14c-0.1-0.1-0.3-0.2-0.4-0.2
			c-0.1-0.1-0.2-0.1-0.3-0.2c-0.2-0.1-0.3-0.2-0.4-0.2c-0.1-0.1-0.2-0.1-0.2-0.1c0,0,0,0,0.1,0.1c0.1,0.1,0.2,0.1,0.4,0.3
			c0.1,0.1,0.2,0.1,0.3,0.2c0.1,0.1,0.2,0.1,0.4,0.2c0.1,0.1,0.3,0.2,0.4,0.3c0.1,0.1,0.3,0.2,0.5,0.3c0.6,0.4,1.4,1,2.1,1.7
			c0.2,0.2,0.4,0.4,0.6,0.5c0.2,0.2,0.4,0.4,0.6,0.6c0.1,0.1,0.2,0.2,0.3,0.3c0.1,0.1,0.2,0.2,0.3,0.3c0.2,0.2,0.4,0.4,0.6,0.7
			c0.1,0.1,0.2,0.2,0.3,0.4c0.1,0.1,0.2,0.2,0.3,0.4c0,0.1,0.1,0.1,0.1,0.2c0,0.1,0.1,0.1,0.1,0.2c0.1,0.1,0.2,0.2,0.2,0.4
			c0.3,0.5,0.6,0.9,0.8,1.4c0.1,0.2,0.2,0.5,0.3,0.7c0.1,0.1,0.1,0.2,0.2,0.3c0,0.1,0,0.1,0.1,0.2c0,0.1,0,0.1,0.1,0.2
			c0.2,0.4,0.3,0.8,0.5,1.2c0.1,0.4,0.3,0.8,0.3,1.1c-0.9-2.9-2.5-5.5-4.7-7.7c-3.6-3.6-8.5-5.6-13.6-5.6c-5.1,0-10,2-13.6,5.6
			c-2.2,2.2-3.8,4.9-4.7,7.7c0.1-0.3,0.2-0.7,0.3-1.1c0.1-0.4,0.3-0.8,0.5-1.2c0-0.1,0-0.1,0.1-0.2c0-0.1,0-0.1,0.1-0.2
			c0-0.1,0.1-0.2,0.2-0.3c0.1-0.2,0.2-0.4,0.3-0.7c0.2-0.5,0.5-0.9,0.8-1.4c0.1-0.1,0.2-0.2,0.2-0.4c0-0.1,0.1-0.1,0.1-0.2
			c0-0.1,0.1-0.1,0.1-0.2c0.1-0.1,0.2-0.2,0.3-0.4c0.1-0.1,0.2-0.2,0.3-0.4c0.2-0.2,0.4-0.5,0.6-0.7c0.1-0.1,0.2-0.2,0.3-0.3
			c0.1-0.1,0.2-0.2,0.3-0.3c0.2-0.2,0.4-0.4,0.6-0.6c0.2-0.2,0.4-0.4,0.6-0.5c0.8-0.7,1.5-1.3,2.1-1.7c0.2-0.1,0.3-0.2,0.5-0.3
			c0.1-0.1,0.3-0.2,0.4-0.3c0.1-0.1,0.3-0.2,0.4-0.2c0.1-0.1,0.2-0.1,0.3-0.2c0.2-0.1,0.3-0.2,0.4-0.3c0.1-0.1,0.1-0.1,0.1-0.1
			c0,0-0.1,0-0.2,0.1c-0.1,0.1-0.3,0.1-0.4,0.2c-0.1,0.1-0.2,0.1-0.3,0.2c-0.1,0.1-0.2,0.1-0.4,0.2c-0.1,0.1-0.3,0.2-0.4,0.3
			c-0.1,0.1-0.3,0.2-0.5,0.3c-0.6,0.4-1.4,1-2.2,1.7c-0.2,0.2-0.4,0.4-0.6,0.5c-0.2,0.2-0.4,0.4-0.6,0.6c-0.1,0.1-0.2,0.2-0.3,0.3
			c-0.1,0.1-0.2,0.2-0.3,0.3c-0.2,0.2-0.4,0.4-0.6,0.7c-0.1,0.1-0.2,0.2-0.3,0.4c-0.1,0.1-0.2,0.2-0.3,0.4c0,0.1-0.1,0.1-0.1,0.2
			c0,0.1-0.1,0.1-0.1,0.2c-0.1,0.1-0.2,0.2-0.2,0.4c-0.3,0.5-0.6,0.9-0.8,1.4c-0.1,0.2-0.2,0.5-0.3,0.7c-0.1,0.1-0.1,0.2-0.1,0.3
			c0,0.1,0,0.1-0.1,0.2c0,0.1,0,0.1-0.1,0.2c-0.2,0.4-0.3,0.8-0.4,1.2c-0.2,0.7-0.4,1.4-0.5,1.8c0,0.1,0,0.2,0,0.3
			c0.1-0.6,0.1-1.2,0.2-1.8c0.3-1.6,0.7-3.2,1.5-4.6c0.3-0.6,0.8-1.2,1.2-1.7c0.4-0.3,1.1-0.9,1.2-1c0.5-0.5,0.9-1,1.3-1.6l0,0
			c0.5-0.7,2-0.9,2.4-1.2c0.3-0.3,0.6-0.6,0-0.8c-0.6-0.2-1.9,1.3-1.9,1.3l-0.1,0.1c0.9-1.2,1.7-2.5,2.6-3.7
			c0.2-0.2,0.4-0.5,0.5-0.7l-0.2,0.2c0.2-0.3,0.7-0.7,1.8-0.4c1.1,0.3,1.9-0.1,2.4-0.4c0.5-0.3,0.8-0.1,0.8-0.1
			C22.9,9.3,22.2,9,22.2,9c-1.7-0.6-3.6,1.2-3.6,1.2c0.8-1,1.7-2,2.9-2.5c0.6-0.3,1.4-0.5,2.1-0.4c0.1,0,0.9,0.2,1.3,0.3
			c0.1,0,0.2,0.1,0.3,0.1c-0.3,0.1-0.8,0.6-0.8,0.6C24,8.6,23.8,9,23.7,9.5c-0.1,0.9,0.7,1.8,1.6,1.8c1.1,0,1.7-0.9,1.5-1.9
			c-0.1-0.5-0.3-0.9-0.7-1.2c-0.1-0.1-0.6-0.5-0.8-0.5c0.1,0,0.2-0.1,0.3-0.2c0.1-0.1,0.3-0.1,0.5-0.1c0.1,0,0.2,0,0.3,0.1
			c0.1,0,0.2,0.1,0.3,0.2c0.2,0.1,0.4,0.3,0.5,0.5c0.1,0.2,0.2,0.3,0.3,0.5C27.8,8.8,27.9,9,27.9,9c0,0-0.1-0.2-0.2-0.5
			c-0.1-0.1-0.2-0.3-0.3-0.5c-0.1-0.1-0.1-0.1-0.2-0.2c0.1,0,0.2,0.1,0.4,0.1c0.2,0,0.3,0,0.5-0.1c0.2-0.1,0.3-0.2,0.5-0.3
			c0.1-0.1,0.1-0.2,0.2-0.3c0.1-0.1,0.1-0.2,0.1-0.3c0-0.2,0-0.5-0.1-0.7c-0.1-0.1-0.1-0.2-0.2-0.3c-0.1-0.1-0.2-0.1-0.3-0.2
			c-0.2-0.1-0.5,0-0.6,0.1C27.5,5.9,27.4,6,27.4,6c-0.1,0.1-0.1,0.2-0.1,0.3c0,0.2,0,0.4,0.1,0.5c0.1,0.1,0.2,0.2,0.3,0.3
			c0,0,0.1,0,0.1,0c0,0,0.1,0,0.1,0c0.1,0,0.1,0,0.1,0c0,0,0,0,0.1,0c0,0,0,0,0,0c0,0,0,0,0,0c0,0,0,0,0,0c0,0,0-0.1,0-0.1
			c0,0,0,0-0.1,0c0,0,0,0,0,0c0,0,0,0,0,0c0,0,0,0,0,0c0,0,0,0-0.1,0c0,0-0.1,0-0.1,0c0,0,0,0-0.1,0c0,0,0,0-0.1,0
			c0,0-0.1,0-0.1-0.1c0,0-0.1-0.1-0.1-0.1c-0.1-0.1-0.1-0.3-0.1-0.4c0-0.1,0.1-0.1,0.1-0.2C27.5,6.1,27.6,6,27.7,6
			c0.2-0.1,0.4-0.1,0.5-0.1c0.1,0,0.2,0.1,0.3,0.1c0.1,0.1,0.1,0.1,0.2,0.2c0.1,0.2,0.1,0.4,0.1,0.6c0,0.1,0,0.2-0.1,0.3
			c0,0.1-0.1,0.2-0.2,0.2c-0.1,0.1-0.3,0.2-0.4,0.3c-0.2,0.1-0.3,0.1-0.5,0.1c-0.1,0-0.3,0-0.4,0c-0.1,0-0.1,0-0.1,0
			C27,7.6,27,7.5,26.9,7.5c-0.1-0.1-0.2-0.1-0.3-0.2c-0.1,0-0.2-0.1-0.4-0.1c-0.2,0-0.4,0.1-0.6,0.2c-0.1,0.1-0.2,0.2-0.3,0.2
			c0,0,0,0,0,0c0-0.1-0.1-0.1-0.3-0.2c-0.4-0.3-1-0.7-1-0.7c-0.5-0.4-0.9-0.9-1.1-1.6c-0.3-1.2,0.6-2.7,1.9-2.7c0,0-0.1,0,0,0
			c0.3,0,0.1,0,0,0c1.1,0,2.1,1.3,1.3,2.3c-0.4,0.5-1.2,0.6-1.7,0.1c0,0,0.4-0.4,0.5-0.8c0-0.1-0.1-0.2-0.1-0.3
			c0.3-0.3,0.5-0.4,0.5-0.4C24.4,3,24,3.8,24,4.1c0,0,0,0,0,0c0,0,0,0,0,0c-0.1,0.4,0.1,0.8,0.4,1.1c0.5,0.4,1.1,0.4,1.6,0.2
			c-0.2,0.2-0.3,0.5,0,0.8c0.2,0.3,0.3,0.4,0.7,0.5c0,0-0.4-0.3,0-0.7C27,5.6,27.2,5,26.8,4.3l0,0c0.2-0.9-0.5-2-1.4-2.2
			c-0.7-0.2-1.3-0.1-1.8,0.3c0.1-0.5,0-1-0.4-1.7c0,0,0,0.4-0.1,0.8c-0.2,0.4-1.3,1-0.6,2.4c0,0,0,0,0,0c-0.1,0.3-0.1,0.5-0.1,0.8
			c0,0-0.1,0.1-0.3,0.2C22.1,5,21.9,5,21.8,5.1c-0.2,0-0.3,0-0.5,0c-0.2,0-0.4-0.1-0.6-0.3c-0.2-0.2-0.3-0.4-0.3-0.6
			c0-0.2,0.1-0.5,0.2-0.7c0.1-0.1,0.2-0.2,0.3-0.2c0,0,0.1,0,0.1,0c0,0.1-0.1,0.1-0.1,0.2c0,0,0,0.1-0.1,0.2c0,0.1,0,0.1,0,0.2
			c0,0.1,0,0.2,0,0.4c0,0.1,0,0.1,0.1,0.2c0,0,0,0.1,0.1,0.1c0,0,0.1,0,0.1,0.1c0.1,0.1,0.3,0.1,0.4,0.1c0.2,0,0.3-0.1,0.4-0.3
			C22,4.1,22,3.9,22,3.8c0-0.2-0.1-0.3-0.2-0.5c-0.1-0.1-0.1-0.1-0.2-0.2c-0.1,0-0.2-0.1-0.2-0.1c0,0-0.1,0-0.1,0
			c0.1-0.2,0.2-0.3,0.3-0.4c0.1-0.2,0.2-0.3,0.2-0.3c0,0-0.1,0.1-0.3,0.2c-0.1,0.1-0.2,0.3-0.4,0.5c-0.1,0-0.2,0-0.3,0
			c-0.2,0-0.3,0.1-0.4,0.3c-0.2,0.2-0.3,0.6-0.3,0.8c0,0.3,0.2,0.5,0.4,0.7c0.1,0.1,0.2,0.1,0.3,0.2c0.1,0,0.2,0.1,0.3,0.1
			c0.2,0,0.4,0,0.6,0c0.2,0,0.3-0.1,0.4-0.2c0,0,0.1-0.1,0.1-0.1c0,0,0.1-0.1,0.1-0.1c0,0,0,0,0,0c0,0.1,0,0.1,0,0.2
			c0.1,0.8,0.7,1.4,1.2,1.9c0,0,0.2,0.2,0.5,0.3C23.8,7,23.6,7,23.5,7c-0.8-0.1-1.6,0-2.3,0.4c-1.5,0.7-2.6,2-3.5,3.3
			c0.2-0.2,0.3-0.5-0.1,0.2c0,0,0,0,0,0c-1,1.4-1.9,2.8-2.9,4.2c-0.4,0.6-1.1,1.4-1.6,2c0,0,0,0,0,0c0.3-0.5,0.7-0.9,1-1.4
			c0.2-0.3,0.4-0.7,0.6-1c0.2-0.3,0.3-0.5,0.4-0.5c0.4-0.7,0.8-1.5,1-2.3c0.2-0.8,0.1-1.6,0-2.4c-0.1-0.7-0.1-1.6,0.2-2.3
			c0.2-0.4,0.5-0.8,0.9-1c0.7-0.4,1.7-0.1,2.1,0.7c0.1,0.1,0.1,0.3,0.1,0.4c-0.1,0.8-1.3,1-1.3,0.2c0-0.8-0.3-0.9-0.3-0.9
			c0,0.5-0.3,0.6-0.3,0.6C17.1,6.8,17,7.1,17,7.2c-0.1,0.2,0,0.6,0.1,0.8c0.2,0.4,0.5,0.6,0.9,0.7c1,0.2,1.6-0.8,1.6-1.7
			c0-0.4-0.2-0.7-0.4-0.9c0,0,1,0.6,1.5,0c0.1-0.1,0.3-0.4,0.2-0.6c-0.1-0.3-1.1,0.4-2,0.3c-0.3-0.2-0.6-0.3-1-0.3
			c-0.7,0-1.3,0.3-1.7,0.8c-0.4,0.4-0.6,0.9-0.7,1.5l0,0c0,0-0.3-0.5-0.1-1.2c0.2-0.7,1.3-1.2,1-2.3c0,0-0.2,0.6-1,0.7
			c-0.8,0.1-0.9,1.5-0.5,2.1c0.2,0.3,0.4,0.7,0.6,1l0,0c0,0.2,0,0.4,0,0.5c0,0.6,0.1,1.1,0.2,1.7c0-0.2-0.1-0.4-0.2-0.6
			c0-0.1-0.1-0.2-0.2-0.3c0,0-0.1-0.1-0.1-0.1c0,0,0,0,0-0.1L15.1,9c-0.1-0.2-0.3-0.3-0.5-0.5c-0.1-0.1-0.2-0.1-0.3-0.2
			c-0.1,0-0.1-0.1-0.2-0.1c-0.1,0-0.1,0-0.2-0.1c-0.2-0.1-0.5-0.1-0.7-0.2C13,8,12.7,8,12.5,7.9c-0.1,0-0.2,0-0.3-0.1
			c0-0.1,0-0.2,0-0.3c0-0.2-0.1-0.4-0.3-0.6c-0.1-0.1-0.2-0.2-0.3-0.2c-0.1,0-0.1,0-0.2-0.1c-0.1,0-0.1,0-0.2,0
			c-0.1,0-0.1,0.1-0.2,0.1c0,0.1-0.1,0.1-0.1,0.2c0,0.1,0,0.3,0,0.4c0.1,0.1,0.2,0.2,0.3,0.3c0.1,0.1,0.2,0.1,0.3,0.2
			C11.8,8,11.9,8,12,8c0,0,0,0.1-0.1,0.1c-0.1,0.1-0.1,0.1-0.2,0.1l-0.1,0c0,0,0,0-0.1,0c0,0-0.1,0-0.1,0c-0.2,0-0.3-0.1-0.4-0.2
			c-0.1-0.1-0.3-0.2-0.4-0.3c-0.1-0.1-0.1-0.1-0.1-0.2c-0.1-0.1-0.1-0.1-0.2-0.1c-0.1-0.1-0.2-0.1-0.3-0.2c-0.1,0-0.2,0-0.3,0
			C9.6,7.4,9.5,7.5,9.4,7.6C9.3,7.7,9.3,7.7,9.3,7.7c0,0,0,0,0.1-0.1c0.1-0.1,0.2-0.2,0.3-0.2c0.1,0,0.2,0,0.3,0
			c0.1,0,0.2,0.1,0.3,0.2c0,0,0.1,0.1,0.1,0.1c0,0.1,0.1,0.1,0.1,0.2C10.7,8,10.9,8.1,11,8.2c0.1,0.1,0.3,0.2,0.5,0.2
			c0,0,0.1,0,0.1,0c0,0,0,0,0.1,0c0,0,0.1,0,0.1,0c0.1,0,0.2-0.1,0.3-0.2c0,0,0,0,0.1-0.1c0,0,0,0,0-0.1c0,0,0,0,0,0
			c0.1,0,0.2,0.1,0.3,0.1c0.2,0,0.5,0.1,0.7,0.1c0.2,0,0.5,0.1,0.7,0.2c0.1,0,0.1,0,0.2,0.1c0.1,0,0.1,0,0.2,0.1
			c0.1,0,0.2,0.1,0.3,0.2C14.7,8.8,14.8,9,15,9.1L15,9.2c0,0,0,0,0,0.1c0,0,0.1,0.1,0.1,0.1c0.1,0.1,0.1,0.2,0.1,0.3
			c0.1,0.2,0.1,0.4,0.2,0.5c0.1,0.4,0.1,0.7,0.1,1c0,0.6-0.2,1.2-0.3,1.5c-0.1,0.2-0.1,0.3-0.1,0.4c0.1-0.4,0.3-1.1,0.2-1.7
			c-0.2-1-0.9-1.7-1.8-2.1c-0.7-0.3-1.6-0.5-2.4-0.4c-0.2,0-0.4,0.1-0.6,0.1l0,0c0,0-0.3-0.4-0.5-0.5C9.4,8.1,8.2,8.2,7.8,8.8
			C7.4,9.4,6.9,9.5,6.9,9.5c1.8,0.6,2.3-0.2,3-0.4c0.3-0.1,0.4,0,0.4,0l0,0c-0.8,0.4-1.5,1-1.8,1.9c0,0-0.1,0.1-0.2,0.3
			C8.2,11.4,8.1,11.7,8,12c0,0,0,0.1,0,0.1c0,0,0,0.1,0,0.1c0,0.1,0,0.2-0.1,0.3c0,0.2-0.1,0.5,0,0.7c0,0,0,0.1,0,0.1
			c0,0,0,0.1,0,0.1c0,0,0,0,0,0c-0.1,0-0.3-0.1-0.4-0.1c-0.2,0-0.4-0.1-0.6-0.1c-0.2-0.1-0.3-0.1-0.4-0.3c0-0.1,0-0.1,0-0.2
			c0-0.1,0-0.1,0-0.2c0-0.1,0.1-0.2,0.1-0.2c0,0,0-0.1,0-0.1c0,0,0,0-0.1,0.1c0,0-0.1,0.1-0.1,0.2c0,0,0,0.1,0,0.2
			c0,0.1,0,0.1,0,0.2c0.1,0.1,0.2,0.3,0.4,0.3c0.2,0.1,0.4,0.1,0.6,0.1c0.2,0,0.3,0.1,0.5,0.1c0,0,0,0,0,0c0,0.1,0.1,0.3,0.1,0.4
			c0,0.1,0.1,0.3,0.2,0.4c0,0.1,0.1,0.1,0.1,0.2c0.1,0.1,0.1,0.1,0.2,0.1c0,0,0.1,0,0.1,0c0,0,0.1,0,0.1-0.1
			c0.1-0.1,0.1-0.1,0.1-0.2c0-0.1,0-0.2,0-0.2c0-0.1-0.1-0.1-0.1-0.2c-0.1-0.1-0.2-0.2-0.3-0.3c-0.1-0.1-0.2-0.1-0.3-0.2
			c0,0-0.1,0-0.1,0c0,0,0-0.1,0-0.1c0,0,0-0.1,0-0.1c0,0,0-0.1,0-0.1c0-0.2,0-0.5,0-0.7c0-0.1,0-0.2,0.1-0.3c0,0,0-0.1,0-0.1
			c0,0,0-0.1,0-0.1c0.1-0.4,0.2-0.6,0.3-0.8C8.5,11.1,8.6,11,8.6,11c-0.1,0.3-0.2,0.6-0.2,0.9c-0.1,1.6,1.5,3.1,3.2,2.6
			c0.9-0.3,1.5-1.2,1.4-2.1c0-0.3-0.2-0.6-0.3-0.8v0c0,0-1.5-1.5-2.2-1.1c-0.6,0.4,0.1,0.8,0.1,0.8c0,0,0,0.1,0,0.1s-0.9,0.4-0.4,1
			c0,0-0.1-0.5,0.8-0.8c0.6-0.2,1.3-0.1,1.7,0.4c0.2,0.4,0.2,0.9,0,1.3c-0.3,0.7-1,1-1.7,1c0.6-0.2,1.2-0.7,1.2-1
			c0.1-0.7-0.6-0.9-0.8,0c-0.1,0.6-0.5,0.8-0.7,1c-0.1,0-0.3-0.1-0.4-0.1c-1.9-0.8-1.5-3.3,0-4.3c1.5-0.9,4.1-0.3,4.7,1.5
			c0.5,1.5-0.4,3-1.3,4.3c0.2-0.4,0.5-0.9,0.7-1.4c0.1-0.3,0.2-0.6,0.3-0.9c0.1-0.3,0.1-0.7,0.1-1c0-0.3-0.1-0.7-0.2-1
			c-0.1-0.3-0.3-0.6-0.5-0.8c-0.1-0.1-0.2-0.2-0.4-0.3c-0.1-0.1-0.2-0.1-0.4-0.2c-0.3-0.1-0.5-0.1-0.7-0.2c-0.4,0-0.8,0-1.1,0
			C11.1,10,11,10,11,10c0,0,0.1,0,0.4,0c0.2,0,0.6,0,1,0c0.2,0,0.5,0.1,0.7,0.2c0.1,0,0.2,0.1,0.3,0.2c0.1,0.1,0.2,0.2,0.3,0.3
			c0.2,0.2,0.4,0.5,0.5,0.7c0.1,0.3,0.2,0.6,0.2,0.9c0,0.7-0.1,1.3-0.3,1.8c-0.2,0.5-0.4,1-0.6,1.4c-0.2,0.4-0.4,0.7-0.5,0.9
			c0,0,0,0.1-0.1,0.1c0.3-0.8-0.4-1.5-0.4-1.5c-0.3,0.9,0,2,0,2c-0.2,0.3-0.5,0.6-0.7,0.9c0.4-0.8,0.6-2-0.6-2.7c0,0,0.2,0.4,0,0.9
			c-0.4,1.2-0.4,1.7,0.1,2.6c-0.2,0.3-0.4,0.6-0.6,0.9c-0.3,0.5-0.5,1.1-0.7,1.6c0-0.2-0.1-0.5-0.2-0.7c-0.3-0.6-0.8-1.1-1.4-1.3
			c-0.6-0.2-1.2-0.2-1.8,0.1C6.4,19.1,6,18.9,6,18.8c-0.4-0.3-0.7-0.7-0.9-1.2c-0.3-0.9,0-1.8,0.8-2.3c0.9-0.5,2.3,0.1,2.1,1.2
			c-0.1,0.4-0.3,0.7-0.7,0.8c-0.2,0-0.5-0.2-0.5-0.5c0-0.7-0.4-0.5-0.4-0.5c0-0.2,0.1-0.9-0.3-0.3c-0.7,0.9,0.4,1.6,0.4,1.6l0,0
			c0.2,0.2,0.5,0.2,0.8,0.1c0.6-0.1,1-0.6,1.1-1.2c0-0.2,0-0.4,0-0.6c0,0,0.1,0.1,0.1,0.2c0,0,0.4,1.1,1.5,0.8c0,0-0.2-0.1-0.3-0.6
			c-0.2-0.8-1.2-0.7-1.4-0.7c-0.4-0.8-1.4-1.3-2.2-1c-0.1,0-0.2,0.1-0.3,0.1C6,14.4,6.2,13.9,6,13.3c0,0-0.1,0.3-0.6,0.4
			c-0.9,0.3-0.8,1.7-0.8,1.7l0,0.5l0,0c-0.2,0.4-0.3,0.9-0.1,1.3c0.2,0.7,0.5,1.2,1.1,1.6c0,0,0.4,0.3,0.8,0.4c-0.2,0-0.5,0-0.9,0
			c-0.3,0-0.5,0-0.8,0c0,0,0,0,0,0c0-0.1,0-0.1,0-0.2c0-0.2-0.1-0.4-0.1-0.6c-0.1-0.2-0.2-0.3-0.3-0.5C4.1,18,4,17.9,3.9,17.9
			c0,0-0.1-0.1-0.1-0.1c0,0-0.1,0-0.2-0.1c-0.1,0-0.2,0-0.3,0c-0.1,0-0.2,0.1-0.3,0.2C3,18,3,18,2.9,18.1c0,0,0,0,0,0.1l0,0.1
			c0,0.1,0,0.2,0,0.3c0,0.1,0,0.2,0.1,0.3C3,18.9,3.1,19,3.1,19c0.2,0.1,0.3,0.2,0.5,0.2c0.3,0.1,0.5,0.1,0.8,0.1c0,0.1,0,0.2,0,0.2
			c-0.1,0.3-0.3,0.5-0.6,0.7c-0.1,0.1-0.3,0.1-0.4,0.1c-0.1,0-0.3,0-0.4-0.1c-0.2-0.1-0.4-0.2-0.6-0.3C2.3,20,2.2,20,2.1,20
			c-0.1,0-0.2,0-0.2,0c-0.1,0-0.2,0.1-0.3,0.2c-0.1,0.1-0.1,0.1-0.1,0.1c0,0,0,0,0.1-0.1c0.1,0,0.2-0.1,0.3-0.1c0.1,0,0.3,0,0.5,0.1
			c0.2,0.1,0.4,0.2,0.6,0.3c0.1,0.1,0.3,0.1,0.4,0.1c0.2,0,0.3-0.1,0.4-0.1c0.1-0.1,0.3-0.2,0.4-0.3c0.1-0.1,0.2-0.3,0.3-0.4
			c0-0.1,0.1-0.2,0.1-0.3c0,0,0,0,0,0c0.3,0,0.6,0,0.9,0c0.4,0,0.7,0,0.9-0.1c-0.3,0.2-0.5,0.4-0.7,0.7v0c-0.8,0.2-1,0.8-0.9,1.3
			c0,0.5-0.1,0.7-0.1,0.7c0.5-0.2,0.7-0.5,0.8-0.8c0.1,0.9,0.8,1.7,1.8,1.6c0.7-0.1,1.2-0.6,1.3-1.3c0-0.3-0.1-0.5-0.2-0.8l0,0
			c0,0-0.6-1-1.4-0.5c-0.6,0.4-0.1,1-0.1,1c0,0,0-0.5,0.3-0.5c0,0,0,0.4,0.3,0.2c0.3-0.2,0.7,0,0.8,0.2c0,0.1,0,0.2,0,0.3
			c-0.1,0.5-0.5,0.8-1,0.9c-1,0.1-1.7-1.1-1.2-2c0.5-1,1.7-1.2,2.6-0.7c0.4,0.3,0.8,0.7,1,1.1c0.1,0.3,0.1,0.5,0.2,0.8c0,0,0,0,0,0
			c-0.1,0.3-0.2,0.6-0.3,0.9c-0.2,1-0.4,2.1-0.5,3.1c0,0.1,0,0.7,0,1.2c-0.3,1.3-0.4,2.7-0.4,4s0.2,2.7,0.4,4c0,0.6,0,1.1,0,1.2
			c0.1,1.1,0.2,2.1,0.5,3.1c0.1,0.3,0.2,0.6,0.3,0.9c0,0,0,0,0,0c0,0.3-0.1,0.5-0.2,0.8c-0.2,0.5-0.5,0.9-1,1.1
			c-0.9,0.5-2.2,0.4-2.6-0.7c-0.5-0.9,0.2-2.1,1.2-2c0.5,0,0.8,0.4,1,0.9c0,0.1,0,0.2,0,0.3C8.1,41,7.7,41.2,7.4,41
			c-0.3-0.2-0.3,0.2-0.3,0.2c-0.3,0-0.3-0.5-0.3-0.5c-0.1,0-0.6,0.6,0.1,1c0.9,0.6,1.4-0.5,1.4-0.5l0,0c0.2-0.2,0.2-0.5,0.2-0.8
			c-0.1-0.7-0.6-1.2-1.3-1.3c-1-0.1-1.7,0.7-1.8,1.6c-0.1-0.3-0.3-0.6-0.8-0.8c0,0,0.2,0.2,0.1,0.7s0.2,1.1,0.9,1.3v0
			c0.2,0.3,0.4,0.5,0.7,0.7c-0.3,0-0.6-0.1-0.9-0.1c-0.3,0-0.5,0-0.9,0c0,0,0,0,0,0c0-0.1,0-0.2-0.1-0.3c-0.1-0.2-0.2-0.3-0.3-0.4
			c-0.1-0.1-0.2-0.2-0.4-0.3c-0.1-0.1-0.3-0.1-0.4-0.1c-0.2,0-0.3,0-0.4,0.1c-0.2,0.1-0.4,0.3-0.6,0.3C2.2,42,2,42,1.9,42
			c-0.1,0-0.2-0.1-0.3-0.1c-0.1,0-0.1-0.1-0.1-0.1c0,0,0,0,0.1,0.1c0.1,0,0.2,0.1,0.3,0.2c0.1,0,0.2,0,0.2,0c0.1,0,0.2,0,0.3-0.1
			c0.2-0.1,0.4-0.2,0.6-0.3c0.1,0,0.2-0.1,0.4-0.1c0.1,0,0.3,0.1,0.4,0.1C4,42,4.3,42.2,4.4,42.5c0,0.1,0,0.1,0,0.2
			c-0.2,0-0.5,0.1-0.8,0.1c-0.2,0.1-0.3,0.1-0.5,0.2c-0.1,0.1-0.2,0.1-0.2,0.2c-0.1,0.1-0.1,0.2-0.1,0.3c0,0.1,0,0.2,0,0.3l0,0.1
			c0,0,0,0,0,0.1c0,0,0,0.1,0.1,0.1c0.1,0.1,0.2,0.2,0.3,0.2c0.1,0,0.2,0,0.3,0c0.1,0,0.1,0,0.2-0.1c0,0,0.1,0,0.1-0.1
			C4,44.2,4.1,44.1,4.1,44c0.1-0.1,0.2-0.3,0.3-0.5c0.1-0.2,0.1-0.4,0.1-0.6c0-0.1,0-0.1,0-0.2c0,0,0,0,0,0c0.3,0,0.6,0,0.8,0
			c0.3,0,0.6,0,0.9,0C6,43,5.6,43.2,5.6,43.2c-0.5,0.4-0.9,1-1.1,1.6c-0.1,0.4-0.1,0.9,0.1,1.3l0,0l0,0.5c0,0-0.2,1.4,0.8,1.7
			C5.9,48.6,6,48.8,6,48.8c0.2-0.6,0-1.2-0.3-1.5c0.1,0,0.2,0.1,0.3,0.1c0.9,0.3,1.9-0.2,2.2-1c0.3,0,1.2,0,1.4-0.7
			c0.1-0.5,0.3-0.6,0.3-0.6C8.8,44.9,8.4,46,8.4,46c0,0.1-0.1,0.2-0.1,0.2c0-0.2,0.1-0.4,0-0.6c-0.1-0.6-0.5-1.1-1.1-1.2
			c-0.3-0.1-0.6,0-0.8,0.1l0,0c0,0-1.1,0.6-0.4,1.6c0.4,0.6,0.4-0.1,0.3-0.3c0,0,0.4,0.2,0.4-0.5c0-0.3,0.3-0.5,0.5-0.5
			c0.4,0,0.6,0.4,0.7,0.8c0.2,1.2-1.2,1.7-2.1,1.2C5,46.3,4.7,45.3,5,44.5C5.2,44,5.6,43.6,6,43.3c0.1,0,0.4-0.3,0.7-0.4
			c0.5,0.3,1.2,0.3,1.8,0.1c0.6-0.2,1.1-0.7,1.4-1.3c0.1-0.2,0.1-0.5,0.2-0.7c0.2,0.6,0.4,1.1,0.7,1.6c0.2,0.3,0.4,0.6,0.6,0.9
			c-0.5,0.8-0.5,1.4-0.1,2.6c0.2,0.5,0,0.9,0,0.9c1.2-0.7,1-1.9,0.6-2.7c0.2,0.3,0.5,0.6,0.7,0.9c0,0-0.3,1.1,0,2
			c0,0,0.7-0.7,0.4-1.5c0,0,0,0,0.1,0.1c0.1,0.2,0.3,0.5,0.5,0.9c0.2,0.4,0.4,0.9,0.6,1.4c0.2,0.5,0.4,1.2,0.3,1.8
			c0,0.3-0.1,0.6-0.2,0.9c-0.1,0.3-0.3,0.6-0.5,0.7c-0.1,0.1-0.2,0.2-0.3,0.3c-0.1,0.1-0.2,0.1-0.3,0.2c-0.2,0.1-0.5,0.1-0.7,0.2
			c-0.4,0.1-0.8,0-1,0c-0.2,0-0.4,0-0.4,0c0,0,0.1,0.1,0.4,0.1c0.2,0,0.6,0.1,1.1,0c0.2,0,0.5-0.1,0.7-0.2c0.1,0,0.3-0.1,0.4-0.2
			c0.1-0.1,0.2-0.2,0.4-0.3c0.2-0.2,0.4-0.5,0.5-0.8c0.1-0.3,0.2-0.6,0.2-1c0-0.3,0-0.7-0.1-1c-0.1-0.3-0.2-0.6-0.3-0.9
			c-0.2-0.6-0.5-1-0.7-1.4c0.9,1.3,1.7,2.8,1.3,4.3c-0.6,1.8-3.2,2.4-4.7,1.5c-1.5-1-1.9-3.5,0-4.3c0.1-0.1,0.3-0.1,0.4-0.1
			c0.3,0.1,0.6,0.4,0.7,1c0.1,0.9,0.9,0.7,0.8,0c-0.1-0.3-0.6-0.8-1.2-1c0.7,0,1.4,0.3,1.7,1c0.2,0.4,0.2,0.9,0,1.3
			c-0.3,0.4-1,0.6-1.7,0.4c-0.9-0.3-0.8-0.8-0.8-0.8c-0.5,0.7,0.4,1,0.4,1s0,0,0,0.1c0-0.1-0.7,0.4-0.1,0.8c0.7,0.5,2.2-1.1,2.2-1.1
			v0c0.2-0.2,0.3-0.5,0.3-0.8c0.1-0.9-0.5-1.8-1.4-2.1c-1.7-0.5-3.3,0.9-3.2,2.6c0,0.3,0.1,0.6,0.2,0.9c0,0-0.1-0.1-0.1-0.3
			c-0.1-0.2-0.2-0.5-0.3-0.8c0,0,0-0.1,0-0.1c0,0,0-0.1,0-0.1c0-0.1,0-0.2-0.1-0.3c0-0.2,0-0.4,0-0.7c0,0,0-0.1,0-0.1
			c0,0,0-0.1,0-0.1c0,0,0-0.1,0-0.1c0,0,0.1,0,0.1,0c0.1,0,0.2-0.1,0.3-0.2c0.1-0.1,0.2-0.2,0.3-0.3c0-0.1,0.1-0.1,0.1-0.2
			c0-0.1,0-0.2,0-0.2c0-0.1-0.1-0.2-0.1-0.2c0,0-0.1-0.1-0.1-0.1c0,0-0.1,0-0.1,0c-0.1,0-0.2,0.1-0.2,0.1c-0.1,0.1-0.1,0.1-0.1,0.2
			C8,47.7,8,47.9,7.9,48c0,0.1-0.1,0.3-0.1,0.4c0,0,0,0,0,0c-0.2,0.1-0.3,0.1-0.5,0.1c-0.2,0-0.4,0.1-0.6,0.1
			c-0.2,0.1-0.3,0.2-0.4,0.3c0,0.1,0,0.2,0,0.2c0,0.1,0,0.1,0,0.2c0,0.1,0.1,0.2,0.1,0.2c0,0,0.1,0.1,0.1,0.1c0,0,0,0,0-0.1
			c0,0-0.1-0.1-0.1-0.2c0,0,0-0.1,0-0.2c0-0.1,0-0.1,0-0.2c0.1-0.1,0.2-0.2,0.4-0.3c0.2-0.1,0.4-0.1,0.6-0.1c0.1,0,0.3-0.1,0.4-0.1
			c0,0,0,0,0,0c0,0,0,0.1,0,0.1c0,0,0,0.1,0,0.1c0,0.3,0,0.5,0,0.7c0,0.1,0,0.2,0.1,0.3c0,0,0,0.1,0,0.1c0,0,0,0.1,0,0.1
			c0.1,0.4,0.3,0.6,0.4,0.8c0.1,0.2,0.2,0.3,0.2,0.3c0.3,0.8,1,1.5,1.8,1.9l0,0c0,0-0.1,0.1-0.4,0c-0.7-0.2-1.3-1.1-3-0.4
			c0,0,0.5,0.1,0.9,0.7c0.4,0.6,1.6,0.7,2.3,0.3c0.1-0.1,0.5-0.5,0.5-0.5l0,0c0.2,0.1,0.4,0.1,0.6,0.1c0.8,0.2,1.7-0.1,2.4-0.4
			c0.9-0.4,1.6-1.2,1.8-2.1c0.1-0.6,0-1.3-0.2-1.7c0,0.1,0.1,0.2,0.1,0.4c0.1,0.3,0.2,0.9,0.3,1.5c0,0.3,0,0.7-0.1,1
			c0,0.2-0.1,0.4-0.2,0.5c0,0.1-0.1,0.2-0.1,0.3c0,0-0.1,0.1-0.1,0.1c0,0,0,0,0,0.1L15,53c-0.1,0.2-0.3,0.3-0.5,0.4
			c-0.1,0.1-0.2,0.1-0.3,0.2c-0.1,0-0.1,0-0.2,0.1c-0.1,0-0.1,0-0.2,0.1c-0.2,0.1-0.4,0.1-0.7,0.2c-0.2,0-0.5,0.1-0.7,0.1
			c-0.1,0-0.2,0.1-0.3,0.1c0,0,0,0,0,0c0,0,0,0,0-0.1c0,0,0,0-0.1-0.1c-0.1-0.1-0.2-0.1-0.3-0.2c0,0-0.1,0-0.1,0c0,0-0.1,0-0.1,0
			c-0.1,0-0.1,0-0.1,0c-0.2,0-0.3,0.1-0.5,0.2c-0.1,0.1-0.3,0.2-0.4,0.3c-0.1,0.1-0.1,0.1-0.1,0.2c0,0-0.1,0.1-0.1,0.1
			c-0.1,0.1-0.2,0.1-0.3,0.2c-0.1,0-0.2,0-0.3,0c-0.2-0.1-0.3-0.2-0.3-0.2c-0.1-0.1-0.1-0.1-0.1-0.1c0,0,0,0,0.1,0.1
			c0.1,0.1,0.2,0.2,0.3,0.2c0.1,0,0.2,0,0.3,0c0.1,0,0.2-0.1,0.3-0.2c0.1,0,0.1-0.1,0.2-0.1c0,0,0.1-0.1,0.1-0.2
			c0.1-0.1,0.2-0.2,0.4-0.3c0.1-0.1,0.3-0.2,0.4-0.2c0,0,0.1,0,0.1,0c0,0,0,0,0.1,0l0.1,0c0.1,0,0.2,0.1,0.2,0.1c0,0,0,0.1,0.1,0.1
			c-0.1,0-0.2,0-0.3,0.1c-0.1,0-0.2,0.1-0.3,0.2c-0.1,0.1-0.2,0.2-0.3,0.3c-0.1,0.1-0.1,0.3,0,0.4c0,0.1,0,0.1,0.1,0.2
			c0,0.1,0.1,0.1,0.2,0.1c0.1,0,0.1,0,0.2,0c0.1,0,0.1,0,0.2-0.1c0.1-0.1,0.2-0.1,0.3-0.2c0.2-0.2,0.3-0.4,0.3-0.6
			c0-0.1,0-0.2,0-0.3c0.1,0,0.2,0,0.3-0.1c0.2,0,0.5-0.1,0.7-0.1c0.2,0,0.5-0.1,0.7-0.2c0.1,0,0.1,0,0.2-0.1c0.1,0,0.1-0.1,0.2-0.1
			c0.1,0,0.2-0.1,0.3-0.2c0.2-0.1,0.4-0.3,0.5-0.5l0.1-0.1c0,0,0,0,0-0.1c0,0,0.1-0.1,0.1-0.1c0.1-0.1,0.1-0.2,0.2-0.3
			c0.1-0.2,0.1-0.4,0.2-0.6c-0.1,0.6-0.2,1.1-0.2,1.7c0,0.2,0,0.3,0,0.5l0,0c-0.1,0.3-0.3,0.7-0.6,1c-0.4,0.6-0.3,2,0.5,2.1
			c0.8,0.1,1,0.7,1,0.7c0.3-1.2-0.8-1.6-1-2.3c-0.2-0.7,0.1-1.2,0.1-1.2l0,0c0.1,0.6,0.3,1.1,0.7,1.5c0.4,0.5,1,0.8,1.7,0.8
			c0.4,0,0.7-0.1,1-0.3c0.9-0.1,1.9,0.6,2,0.3c0.1-0.3,0-0.5-0.2-0.6c-0.6-0.6-1.5,0-1.5,0c0.2-0.2,0.4-0.6,0.4-0.9
			c0.1-0.9-0.6-1.8-1.6-1.7c-0.4,0.1-0.8,0.3-0.9,0.7c-0.1,0.2-0.1,0.6-0.1,0.8c0,0,0.1,0.4,0.3,0.2c0,0,0.3,0,0.3,0.6
			c0,0,0.3-0.1,0.3-0.9s1.2-0.6,1.3,0.2c0,0.2,0,0.3-0.1,0.4c-0.3,0.8-1.3,1-2.1,0.7c-0.4-0.2-0.8-0.6-0.9-1
			c-0.3-0.7-0.3-1.5-0.2-2.3c0.1-0.8,0.2-1.6,0-2.4c-0.2-0.8-0.5-1.6-1-2.3c0,0-0.2-0.3-0.4-0.5c-0.2-0.4-0.4-0.7-0.6-1
			c-0.3-0.5-0.7-0.9-1-1.4c0,0,0,0,0,0c0.5,0.6,1.2,1.3,1.6,2c1,1.4,1.9,2.8,2.9,4.2c0,0,0,0,0,0c0.5,0.7,0.3,0.4,0.1,0.2
			c1,1.3,2.1,2.6,3.5,3.3c0.7,0.4,1.5,0.5,2.3,0.4c0.1,0,0.3-0.1,0.6-0.2c-0.2,0.1-0.4,0.3-0.5,0.3c-0.6,0.5-1.1,1.1-1.2,1.9
			c0,0.1,0,0.1,0,0.2c0,0,0,0,0,0c0,0,0,0-0.1-0.1c0,0-0.1-0.1-0.1-0.1C22.1,57,22,57,21.8,56.9c-0.2,0-0.4-0.1-0.6,0
			c-0.1,0-0.2,0.1-0.3,0.1c-0.1,0.1-0.2,0.1-0.3,0.2c-0.2,0.2-0.3,0.4-0.4,0.7c0,0.3,0.1,0.6,0.3,0.8c0.1,0.1,0.2,0.2,0.4,0.3
			c0.1,0,0.2,0,0.3,0c0.1,0.2,0.3,0.3,0.4,0.5c0.2,0.2,0.3,0.2,0.3,0.2c0,0-0.1-0.1-0.2-0.3c-0.1-0.1-0.2-0.3-0.3-0.4
			c0,0,0.1,0,0.1,0c0.1,0,0.2-0.1,0.2-0.1c0.1,0,0.1-0.1,0.2-0.2c0.1-0.1,0.2-0.3,0.2-0.5c0-0.2,0-0.3-0.1-0.5
			c-0.1-0.1-0.2-0.2-0.4-0.3c-0.2,0-0.3,0-0.4,0.1c0,0-0.1,0-0.1,0.1c0,0-0.1,0.1-0.1,0.1c0,0.1-0.1,0.1-0.1,0.2c0,0.1,0,0.3,0,0.4
			c0,0.1,0,0.1,0,0.2c0,0.1,0,0.1,0.1,0.2c0,0.1,0.1,0.1,0.1,0.2c0,0-0.1,0-0.1,0c-0.1,0-0.2-0.1-0.3-0.2c-0.2-0.2-0.3-0.5-0.2-0.7
			c0-0.3,0.1-0.5,0.3-0.6c0.2-0.2,0.4-0.3,0.6-0.3c0.2,0,0.4,0,0.5,0c0.2,0,0.3,0.1,0.4,0.1c0.2,0.1,0.2,0.2,0.3,0.2
			c0,0.3,0,0.6,0.1,0.8c0,0,0,0,0,0c-0.7,1.4,0.4,2,0.6,2.4c0.2,0.4,0.1,0.8,0.1,0.8c0.4-0.6,0.5-1.2,0.4-1.7
			c0.5,0.3,1.1,0.5,1.8,0.3c1-0.3,1.6-1.3,1.4-2.2l0,0c0.4-0.6,0.2-1.2-0.2-1.7c-0.4-0.5,0-0.7,0-0.7c-0.3,0.1-0.5,0.2-0.7,0.5
			c-0.2,0.3-0.1,0.6,0,0.8c-0.5-0.3-1.1-0.2-1.6,0.2c-0.3,0.3-0.5,0.7-0.4,1.1c0,0,0,0,0,0c0,0,0,0,0,0c0.1,0.3,0.4,1.2,1.3,0.7
			c0,0-0.2-0.2-0.5-0.4c0-0.1,0.2-0.2,0.1-0.3c-0.1-0.4-0.5-0.8-0.5-0.8c0.5-0.5,1.3-0.4,1.7,0.1c0.8,1-0.2,2.3-1.3,2.3
			c0.1,0,0.3,0,0,0c-0.1,0-0.1,0,0,0c-1.3,0-2.2-1.5-1.9-2.7c0.2-0.6,0.6-1.1,1.1-1.6c0.1-0.1,0.7-0.5,1-0.7
			c0.2-0.1,0.3-0.1,0.3-0.2c0,0,0,0,0,0c0.1,0.1,0.2,0.1,0.3,0.2c0.1,0.1,0.3,0.2,0.6,0.2c0.1,0,0.2,0,0.4-0.1
			c0.1,0,0.2-0.1,0.3-0.2c0.1-0.1,0.1-0.1,0.2-0.2c0,0,0.1,0,0.1,0c0.1,0,0.2,0,0.4,0c0.1,0,0.3,0,0.5,0.1c0.2,0.1,0.3,0.1,0.4,0.3
			c0.1,0.1,0.1,0.1,0.2,0.2c0,0.1,0.1,0.2,0.1,0.3c0,0.2,0,0.4-0.1,0.6c-0.1,0.1-0.1,0.2-0.2,0.2c-0.1,0.1-0.2,0.1-0.3,0.1
			c-0.2,0.1-0.4,0-0.5-0.1c-0.1,0-0.1-0.1-0.2-0.2c-0.1-0.1-0.1-0.1-0.1-0.2c0-0.2,0-0.3,0.1-0.4c0-0.1,0.1-0.1,0.1-0.1
			c0,0,0.1-0.1,0.1-0.1c0,0,0,0,0.1,0c0,0,0,0,0.1,0c0,0,0.1,0,0.1,0c0,0,0,0,0.1,0c0,0,0,0,0,0c0,0,0,0,0,0c0,0,0,0,0,0
			c0,0,0.1,0,0.1,0s0,0,0-0.1c0,0,0,0,0,0c0,0,0,0,0,0c0,0,0,0,0,0c0,0,0,0-0.1,0c0,0-0.1,0-0.1,0c0,0-0.1,0-0.1,0c0,0-0.1,0-0.1,0
			c-0.1,0-0.2,0.1-0.3,0.3c-0.1,0.1-0.1,0.3-0.1,0.5c0,0.1,0.1,0.2,0.1,0.3c0.1,0.1,0.1,0.1,0.2,0.2c0.2,0.1,0.4,0.1,0.6,0.1
			c0.1,0,0.2-0.1,0.3-0.2c0.1-0.1,0.2-0.2,0.2-0.3c0.1-0.2,0.2-0.5,0.1-0.7c0-0.1-0.1-0.2-0.1-0.3c-0.1-0.1-0.1-0.2-0.2-0.3
			c-0.1-0.1-0.3-0.2-0.5-0.3c-0.2-0.1-0.3-0.1-0.5-0.1c-0.1,0-0.3,0-0.4,0.1c0.1-0.1,0.1-0.1,0.2-0.2c0.1-0.2,0.2-0.3,0.3-0.5
			c0.2-0.3,0.2-0.5,0.2-0.5c0,0-0.1,0.2-0.3,0.4c-0.1,0.1-0.2,0.3-0.3,0.5c-0.1,0.2-0.3,0.3-0.5,0.5c-0.1,0.1-0.2,0.1-0.3,0.2
			c-0.1,0-0.2,0.1-0.3,0.1c-0.2,0-0.4-0.1-0.5-0.1c-0.1-0.1-0.2-0.1-0.3-0.2c0.2,0,0.8-0.4,0.8-0.5c0.3-0.3,0.6-0.7,0.7-1.2
			c0.1-1-0.5-1.9-1.5-1.9c-0.9,0-1.8,0.8-1.6,1.8c0.1,0.4,0.3,0.8,0.6,1.2c0.1,0.1,0.6,0.5,0.8,0.6c-0.1,0-0.2,0.1-0.3,0.1
			c-0.5,0.1-1.2,0.3-1.3,0.3c-0.7,0.1-1.5-0.1-2.1-0.4c-1.1-0.5-2.1-1.5-2.9-2.5c0,0,1.9,1.8,3.6,1.2c0,0,0.6-0.3,0.9-0.7
			c0,0-0.2,0.2-0.8-0.1c-0.5-0.3-1.3-0.7-2.4-0.4c-1.1,0.3-1.6-0.1-1.8-0.4l0.1,0.2c-0.2-0.2-0.4-0.5-0.5-0.7
			c-0.9-1.2-1.7-2.5-2.6-3.7l0.1,0.1c0,0,1.3,1.6,1.9,1.3c0.6-0.2,0.3-0.6,0-0.8c-0.3-0.3-1.9-0.5-2.4-1.2c-0.4-0.6-0.9-1.1-1.3-1.6
			c-0.1-0.1-0.8-0.7-1.2-1c-0.4-0.6-0.8-1.1-1.2-1.7c-0.8-1.4-1.3-3-1.5-4.6c-0.1-0.6-0.2-1.2-0.2-1.8c0,0.1,0,0.2,0,0.3
			c0.1,0.4,0.2,1,0.5,1.8c0.1,0.4,0.3,0.8,0.4,1.2c0,0.1,0,0.1,0.1,0.2c0,0.1,0,0.1,0.1,0.2c0,0.1,0.1,0.2,0.1,0.3
			c0.1,0.2,0.2,0.5,0.3,0.7c0.2,0.5,0.5,0.9,0.8,1.4c0.1,0.1,0.2,0.2,0.2,0.4c0,0.1,0.1,0.1,0.1,0.2c0,0.1,0.1,0.1,0.1,0.2
			c0.1,0.1,0.2,0.2,0.3,0.4c0.1,0.1,0.2,0.2,0.3,0.4c0.2,0.2,0.4,0.5,0.6,0.7c0.1,0.1,0.2,0.2,0.3,0.3c0.1,0.1,0.2,0.2,0.3,0.3
			c0.2,0.2,0.4,0.4,0.6,0.6c0.2,0.2,0.4,0.4,0.6,0.5c0.8,0.7,1.5,1.2,2.2,1.7c0.2,0.1,0.3,0.2,0.5,0.3c0.1,0.1,0.3,0.2,0.4,0.3
			c0.1,0.1,0.3,0.2,0.4,0.2c0.1,0.1,0.2,0.1,0.3,0.2c0.2,0.1,0.3,0.2,0.4,0.2s0.2,0.1,0.2,0.1c0,0,0,0-0.1-0.1
			c-0.1-0.1-0.2-0.1-0.4-0.3c-0.1-0.1-0.2-0.1-0.3-0.2c-0.1-0.1-0.2-0.1-0.4-0.2c-0.1-0.1-0.3-0.2-0.4-0.3c-0.1-0.1-0.3-0.2-0.5-0.3
			c-0.6-0.4-1.4-1-2.1-1.7c-0.2-0.2-0.4-0.4-0.6-0.5c-0.2-0.2-0.4-0.4-0.6-0.6c-0.1-0.1-0.2-0.2-0.3-0.3c-0.1-0.1-0.2-0.2-0.3-0.3
			c-0.2-0.2-0.4-0.4-0.6-0.7c-0.1-0.1-0.2-0.2-0.3-0.4c-0.1-0.1-0.2-0.2-0.3-0.4c0-0.1-0.1-0.1-0.1-0.2c0-0.1-0.1-0.1-0.1-0.2
			c-0.1-0.1-0.2-0.2-0.2-0.4c-0.3-0.5-0.6-0.9-0.8-1.4c-0.1-0.2-0.2-0.5-0.3-0.7c-0.1-0.1-0.1-0.2-0.2-0.3c0-0.1,0-0.1-0.1-0.2
			c0-0.1,0-0.1-0.1-0.2c-0.2-0.4-0.3-0.8-0.5-1.2c-0.1-0.4-0.3-0.8-0.3-1.1c0.9,2.9,2.5,5.5,4.7,7.7c3.6,3.6,8.5,5.6,13.6,5.6
			c5.1,0,10-2,13.6-5.6c2.2-2.2,3.8-4.9,4.7-7.7c-0.1,0.3-0.2,0.7-0.3,1.1c-0.1,0.4-0.3,0.8-0.5,1.2c0,0.1,0,0.1-0.1,0.2
			c0,0.1,0,0.1-0.1,0.2c0,0.1-0.1,0.2-0.2,0.3c-0.1,0.2-0.2,0.4-0.3,0.7c-0.2,0.5-0.5,0.9-0.8,1.4c-0.1,0.1-0.2,0.2-0.2,0.4
			c0,0.1-0.1,0.1-0.1,0.2c0,0.1-0.1,0.1-0.1,0.2c-0.1,0.1-0.2,0.2-0.3,0.4c-0.1,0.1-0.2,0.2-0.3,0.3c-0.2,0.2-0.4,0.5-0.6,0.7
			c-0.1,0.1-0.2,0.2-0.3,0.3c-0.1,0.1-0.2,0.2-0.3,0.3c-0.2,0.2-0.4,0.4-0.6,0.6c-0.2,0.2-0.4,0.4-0.6,0.5c-0.8,0.7-1.5,1.3-2.1,1.7
			c-0.2,0.1-0.3,0.2-0.5,0.3c-0.1,0.1-0.3,0.2-0.4,0.3c-0.1,0.1-0.3,0.2-0.4,0.2c-0.1,0.1-0.2,0.1-0.3,0.2c-0.2,0.1-0.3,0.2-0.4,0.3
			c-0.1,0.1-0.1,0.1-0.1,0.1c0,0,0.1,0,0.2-0.1c0.1-0.1,0.3-0.1,0.4-0.2c0.1-0.1,0.2-0.1,0.3-0.2c0.1-0.1,0.2-0.1,0.4-0.2
			c0.1-0.1,0.3-0.2,0.4-0.3c0.1-0.1,0.3-0.2,0.5-0.3c0.6-0.4,1.4-1,2.2-1.7c0.2-0.2,0.4-0.4,0.6-0.5c0.2-0.2,0.4-0.4,0.6-0.6
			c0.1-0.1,0.2-0.2,0.3-0.3c0.1-0.1,0.2-0.2,0.3-0.3c0.2-0.2,0.4-0.4,0.6-0.7c0.1-0.1,0.2-0.2,0.3-0.4c0.1-0.1,0.2-0.2,0.3-0.4
			c0-0.1,0.1-0.1,0.1-0.2c0-0.1,0.1-0.1,0.1-0.2c0.1-0.1,0.2-0.2,0.2-0.4c0.3-0.5,0.6-0.9,0.8-1.4c0.1-0.2,0.2-0.5,0.3-0.7
			c0.1-0.1,0.1-0.2,0.1-0.3c0-0.1,0-0.1,0.1-0.2c0-0.1,0-0.1,0.1-0.2c0.2-0.4,0.3-0.8,0.4-1.2c0.2-0.7,0.4-1.4,0.5-1.8
			c0-0.1,0-0.2,0-0.3c-0.1,0.6-0.1,1.2-0.2,1.8c-0.3,1.6-0.7,3.2-1.5,4.6c-0.3,0.6-0.8,1.2-1.2,1.7c-0.4,0.3-1.1,0.9-1.2,1
			c-0.5,0.5-0.9,1-1.3,1.6c-0.5,0.7-2,0.9-2.4,1.2c-0.3,0.3-0.6,0.6,0,0.8c0.6,0.2,1.9-1.3,1.9-1.3l0.1-0.1
			c-0.9,1.2-1.7,2.5-2.6,3.7c-0.2,0.2-0.4,0.5-0.5,0.7l0.2-0.2c-0.2,0.3-0.7,0.7-1.8,0.4c-1.1-0.3-1.9,0.1-2.4,0.4
			c-0.5,0.3-0.8,0.1-0.8,0.1c0.3,0.5,0.9,0.7,0.9,0.7c1.7,0.6,3.6-1.2,3.6-1.2c-0.8,1-1.7,2-2.9,2.5c-0.6,0.3-1.4,0.5-2.1,0.4
			c-0.1,0-0.9-0.2-1.3-0.3c-0.1,0-0.2-0.1-0.3-0.1c0.3-0.1,0.8-0.6,0.8-0.6c0.3-0.3,0.6-0.7,0.6-1.2c0.1-0.9-0.7-1.8-1.6-1.8
			c-1.1,0-1.7,0.9-1.5,1.9c0.1,0.5,0.3,0.9,0.7,1.2c0.1,0.1,0.6,0.5,0.8,0.5c-0.1,0-0.2,0.1-0.3,0.2c-0.1,0.1-0.3,0.1-0.5,0.1
			c-0.1,0-0.2,0-0.3-0.1c-0.1,0-0.2-0.1-0.3-0.2c-0.2-0.1-0.4-0.3-0.5-0.5c-0.1-0.2-0.2-0.3-0.3-0.5c-0.2-0.3-0.3-0.5-0.3-0.4
			c0,0,0.1,0.2,0.2,0.5c0.1,0.1,0.2,0.3,0.3,0.5c0.1,0.2,0.3,0.4,0.5,0.5c0.1,0.1,0.2,0.1,0.3,0.2c0.1,0,0.2,0.1,0.4,0.1
			c0.2,0,0.4-0.1,0.6-0.2c0.1-0.1,0.2-0.2,0.3-0.2c0,0,0,0,0,0c0,0.1,0.1,0.1,0.3,0.2c0.4,0.3,1,0.7,1,0.7c0.5,0.4,0.9,0.9,1.1,1.6
			c0.3,1.2-0.6,2.7-1.9,2.7c0,0,0.1,0,0,0c-0.3,0-0.1,0,0,0c-1.1,0-2.1-1.3-1.3-2.3c0.4-0.5,1.2-0.6,1.7-0.1c0,0-0.3,0.4-0.4,0.8
			c0,0.1,0,0.2,0,0.3c-0.3,0.3-0.5,0.4-0.5,0.4c0.9,0.5,1.2-0.4,1.3-0.7c0,0,0,0,0,0c0,0,0,0,0,0c0.1-0.4-0.1-0.8-0.4-1.1
			c-0.5-0.4-1.1-0.4-1.6-0.2c0.2-0.2,0.3-0.5,0-0.8c-0.2-0.3-0.3-0.4-0.7-0.5c0,0,0.4,0.3,0,0.7c-0.4,0.5-0.7,1.1-0.2,1.7l0,0
			c0,0.2,0,0.3,0,0.5c0,0,0-0.1-0.1-0.1c-0.1-0.1-0.2-0.2-0.3-0.3c-0.1-0.1-0.3-0.1-0.5-0.2c-0.2,0-0.4,0-0.6,0.1c0,0-0.1,0-0.1,0.1
			c0,0-0.1,0.1-0.1,0.1c-0.1,0.1-0.2,0.1-0.2,0.2c-0.1,0.2-0.2,0.4-0.2,0.7c0,0.1,0,0.2,0.1,0.3c0,0.1,0.1,0.2,0.2,0.3
			c0.2,0.2,0.4,0.2,0.6,0.2c0.1,0,0.2,0,0.3-0.1c0.1,0,0.2-0.1,0.2-0.2c0.1-0.1,0.2-0.3,0.2-0.5c0-0.2-0.1-0.3-0.2-0.4
			c0,0-0.1-0.1-0.1-0.1c0,0-0.1,0-0.1,0c0,0,0,0-0.1,0c0,0,0,0-0.1,0c0,0,0,0,0,0c0,0,0,0,0,0c0,0-0.1,0-0.1,0s0,0,0.1,0
			c0,0,0,0,0,0c0,0,0,0,0,0c0,0,0,0,0,0c0,0,0,0,0.1,0c0,0,0.1,0,0.1,0c0,0,0.1,0.1,0.1,0.1c0,0,0,0,0,0.1c0,0,0,0,0,0c0,0,0,0,0,0
			c0,0.1,0,0.1,0,0.2c0,0.1,0,0.3-0.1,0.4c-0.1,0.1-0.1,0.1-0.2,0.1c-0.1,0-0.2,0.1-0.2,0.1c-0.2,0-0.4-0.1-0.5-0.2
			c-0.1-0.1-0.1-0.1-0.2-0.2c0-0.1-0.1-0.2-0.1-0.3c0-0.2,0-0.4,0.1-0.6c0.1-0.1,0.1-0.1,0.2-0.2c0,0,0.1-0.1,0.1-0.1
			c0,0,0.1,0,0.1-0.1c0.2-0.1,0.3-0.1,0.5-0.1c0.2,0,0.3,0.1,0.4,0.1c0.1,0.1,0.2,0.1,0.3,0.2c0.1,0.1,0.1,0.1,0.1,0.2
			c0.1,0.7,0.7,1.4,1.4,1.6c0.7,0.2,1.3,0.1,1.8-0.3c-0.1,0.5,0,1,0.4,1.7c0,0,0-0.4,0.1-0.8c0.2-0.4,1.3-1,0.6-2.4c0,0,0,0,0,0
			c0.1-0.3,0.1-0.5,0.1-0.8c0,0,0.1-0.1,0.3-0.2c0.1-0.1,0.2-0.1,0.4-0.1c0.2,0,0.3,0,0.5,0c0.1,0,0.2,0.1,0.3,0.1
			c0.1,0.1,0.2,0.1,0.3,0.2c0.2,0.2,0.3,0.4,0.3,0.6c0,0.2-0.1,0.5-0.2,0.7c-0.1,0.1-0.2,0.2-0.3,0.2c0,0-0.1,0-0.1,0
			c0-0.1,0.1-0.1,0.1-0.2c0,0,0-0.1,0.1-0.2c0-0.1,0-0.1,0-0.2c0-0.1,0-0.2,0-0.4c0-0.1,0-0.1-0.1-0.2c0,0,0-0.1-0.1-0.1
			c0,0-0.1,0-0.1-0.1c-0.1-0.1-0.3-0.1-0.4-0.1c-0.2,0-0.3,0.1-0.4,0.3c-0.1,0.1-0.1,0.3-0.1,0.5c0,0.2,0.1,0.3,0.2,0.5
			c0.1,0.1,0.1,0.1,0.2,0.2c0.1,0,0.2,0.1,0.2,0.1c0,0,0.1,0,0.1,0c-0.1,0.2-0.2,0.3-0.3,0.4c-0.1,0.2-0.2,0.3-0.2,0.3
			c0,0,0.1-0.1,0.3-0.2c0.1-0.1,0.2-0.3,0.4-0.5c0.1,0,0.2,0,0.3,0c0.2,0,0.3-0.1,0.4-0.3c0.2-0.2,0.3-0.6,0.3-0.8
			c0-0.3-0.2-0.5-0.4-0.7c-0.1-0.1-0.2-0.1-0.3-0.2c-0.1,0-0.2-0.1-0.3-0.1c-0.2,0-0.4,0-0.6,0c-0.2,0-0.3,0.1-0.4,0.2
			c0,0-0.1,0.1-0.1,0.1c0,0-0.1,0.1-0.1,0.1c0,0,0,0,0,0c0-0.1,0-0.1,0-0.2c-0.1-0.8-0.7-1.4-1.2-1.9c0,0-0.2-0.2-0.5-0.3
			c0.3,0.1,0.6,0.2,0.6,0.2c0.8,0.1,1.6,0,2.3-0.4c1.5-0.7,2.6-2,3.5-3.3c-0.2,0.2-0.3,0.5,0.1-0.2c0,0,0,0,0,0
			c1-1.4,1.9-2.8,2.9-4.2c0.4-0.6,1.1-1.4,1.6-2c0,0,0,0,0,0c-0.3,0.5-0.7,0.9-1,1.4c-0.2,0.3-0.4,0.7-0.6,1
			c-0.2,0.3-0.3,0.5-0.4,0.5c-0.4,0.7-0.8,1.5-1,2.3c-0.2,0.8-0.1,1.6,0,2.4c0.1,0.7,0.1,1.6-0.2,2.3c-0.2,0.4-0.5,0.8-0.9,1
			c-0.7,0.4-1.7,0.1-2.1-0.7c-0.1-0.1-0.1-0.3-0.1-0.4c0.1-0.8,1.3-1,1.3-0.2s0.3,0.9,0.3,0.9c0-0.5,0.3-0.6,0.3-0.6
			c0.2,0.2,0.3-0.2,0.3-0.2c0.1-0.2,0-0.6-0.1-0.8c-0.2-0.4-0.5-0.6-0.9-0.7c-1-0.2-1.6,0.8-1.6,1.7c0,0.4,0.2,0.7,0.4,0.9
			c0,0-1-0.6-1.5,0c-0.1,0.1-0.3,0.4-0.2,0.6c0.1,0.3,1.1-0.4,2-0.3c0.3,0.2,0.6,0.3,1,0.3c0.7,0,1.3-0.3,1.7-0.8
			c0.4-0.4,0.6-0.9,0.7-1.5l0,0c0,0,0.3,0.5,0.1,1.2c-0.2,0.7-1.3,1.2-1,2.3c0,0,0.2-0.6,1-0.7c0.8-0.1,0.9-1.5,0.5-2.1
			c-0.2-0.3-0.4-0.7-0.6-1l0,0c0-0.2,0-0.4,0-0.5c0-0.6-0.1-1.1-0.2-1.7c0,0.2,0.1,0.4,0.2,0.6c0,0.1,0.1,0.2,0.2,0.3
			c0,0,0.1,0.1,0.1,0.1c0,0,0,0,0,0.1l0.1,0.1c0.1,0.2,0.3,0.3,0.5,0.5c0.1,0.1,0.2,0.1,0.3,0.2c0.1,0,0.1,0.1,0.2,0.1
			c0.1,0,0.1,0,0.2,0.1c0.2,0.1,0.5,0.1,0.7,0.2c0.2,0,0.5,0.1,0.7,0.1c0.1,0,0.2,0,0.3,0.1c0,0.1,0,0.2,0,0.3
			c0,0.2,0.1,0.4,0.3,0.6c0.1,0.1,0.2,0.2,0.3,0.2c0.1,0,0.1,0,0.2,0.1c0.1,0,0.1,0,0.2,0c0.1,0,0.1-0.1,0.2-0.1
			c0-0.1,0.1-0.1,0.1-0.2c0-0.1,0-0.3,0-0.4c-0.1-0.1-0.2-0.2-0.3-0.3c-0.1-0.1-0.2-0.1-0.3-0.2c-0.1,0-0.2,0-0.3-0.1
			c0,0,0-0.1,0.1-0.1c0.1-0.1,0.1-0.1,0.2-0.1l0.1,0c0,0,0,0,0.1,0c0,0,0.1,0,0.1,0c0.2,0,0.3,0.1,0.4,0.2c0.1,0.1,0.3,0.2,0.4,0.3
			c0.1,0.1,0.1,0.1,0.1,0.2c0.1,0.1,0.1,0.1,0.2,0.1c0.1,0.1,0.2,0.1,0.3,0.2c0.1,0,0.2,0,0.3,0c0.2-0.1,0.3-0.2,0.3-0.2
			c0.1-0.1,0.1-0.1,0.1-0.1c0,0,0,0-0.1,0.1c-0.1,0.1-0.2,0.2-0.3,0.2c-0.1,0-0.2,0-0.3,0c-0.1,0-0.2-0.1-0.3-0.2
			c0,0-0.1-0.1-0.1-0.1c0-0.1-0.1-0.1-0.1-0.2c-0.1-0.1-0.2-0.2-0.4-0.3c-0.1-0.1-0.3-0.2-0.5-0.2c0,0-0.1,0-0.1,0c0,0,0,0-0.1,0
			c0,0-0.1,0-0.1,0c-0.1,0-0.2,0.1-0.3,0.2c0,0,0,0-0.1,0.1c0,0,0,0,0,0.1c0,0,0,0,0,0c-0.1,0-0.2-0.1-0.3-0.1
			c-0.2,0-0.5-0.1-0.7-0.1c-0.2,0-0.5-0.1-0.7-0.2c-0.1,0-0.1,0-0.2-0.1c-0.1,0-0.1,0-0.2-0.1c-0.1,0-0.2-0.1-0.3-0.2
			c-0.2-0.1-0.3-0.3-0.5-0.4l-0.1-0.1c0,0,0,0,0-0.1c0,0-0.1-0.1-0.1-0.1c-0.1-0.1-0.1-0.2-0.1-0.3c-0.1-0.2-0.1-0.4-0.2-0.5
			c-0.1-0.4-0.1-0.7-0.1-1c0-0.6,0.2-1.2,0.3-1.5c0.1-0.2,0.1-0.3,0.1-0.4c-0.1,0.4-0.3,1.1-0.2,1.7c0.2,1,0.9,1.7,1.8,2.1
			c0.7,0.3,1.6,0.5,2.4,0.4c0.2,0,0.4-0.1,0.6-0.1l0,0c0,0,0.3,0.4,0.5,0.5c0.7,0.4,1.9,0.3,2.3-0.3c0.4-0.6,0.9-0.7,0.9-0.7
			c-1.8-0.6-2.3,0.2-3,0.4c-0.3,0.1-0.4,0-0.4,0l0,0c0.8-0.4,1.5-1,1.8-1.9c0,0,0.1-0.1,0.2-0.3c0.1-0.2,0.3-0.4,0.4-0.8
			c0,0,0-0.1,0-0.1c0,0,0-0.1,0-0.1c0-0.1,0-0.2,0.1-0.3c0-0.2,0.1-0.5,0-0.7c0,0,0-0.1,0-0.1c0,0,0-0.1,0-0.1c0,0,0,0,0,0
			c0.1,0,0.3,0.1,0.4,0.1c0.2,0,0.4,0.1,0.6,0.1c0.2,0.1,0.3,0.1,0.4,0.3c0,0.1,0,0.1,0,0.2c0,0.1,0,0.1,0,0.2
			c0,0.1-0.1,0.2-0.1,0.2c0,0,0,0.1,0,0.1c0,0,0,0,0.1-0.1c0,0,0.1-0.1,0.1-0.2c0,0,0-0.1,0-0.2c0-0.1,0-0.1,0-0.2
			c-0.1-0.1-0.2-0.3-0.4-0.3c-0.2-0.1-0.4-0.1-0.6-0.1c-0.2,0-0.3-0.1-0.5-0.1c0,0,0,0,0,0c0-0.1-0.1-0.3-0.1-0.4
			c0-0.1-0.1-0.3-0.2-0.4c0-0.1-0.1-0.1-0.1-0.2c-0.1-0.1-0.1-0.1-0.2-0.1c0,0-0.1,0-0.1,0c0,0-0.1,0-0.1,0.1
			c-0.1,0.1-0.1,0.1-0.1,0.2c0,0.1,0,0.2,0,0.2c0,0.1,0.1,0.1,0.1,0.2c0.1,0.1,0.2,0.2,0.3,0.3c0.1,0.1,0.2,0.1,0.3,0.2
			c0,0,0.1,0,0.1,0c0,0,0,0.1,0,0.1c0,0,0,0.1,0,0.1c0,0,0,0.1,0,0.1c0,0.2,0,0.5,0,0.7c0,0.1,0,0.2-0.1,0.3c0,0,0,0.1,0,0.1
			c0,0,0,0.1,0,0.1c-0.1,0.4-0.2,0.6-0.3,0.8c-0.1,0.2-0.2,0.3-0.1,0.3c0.1-0.3,0.2-0.6,0.2-0.9c0.1-1.6-1.5-3.1-3.2-2.6
			c-0.9,0.3-1.5,1.2-1.4,2.1c0,0.3,0.2,0.6,0.3,0.8v0c0,0,1.5,1.5,2.2,1.1c0.6-0.4-0.1-0.8-0.1-0.8c0,0,0-0.1,0-0.1s0.9-0.4,0.4-1
			c0,0,0.1,0.5-0.8,0.8c-0.6,0.2-1.3,0.1-1.7-0.4c-0.2-0.4-0.2-0.9,0-1.3c0.3-0.7,1-1,1.7-1c-0.6,0.2-1.2,0.7-1.2,1
			c-0.1,0.7,0.6,0.9,0.8,0c0.1-0.6,0.5-0.8,0.7-1c0.1,0,0.3,0.1,0.4,0.1c1.9,0.8,1.5,3.3,0,4.3c-1.5,0.9-4.1,0.3-4.7-1.5
			c-0.5-1.5,0.4-3,1.3-4.3c-0.2,0.4-0.5,0.9-0.7,1.4c-0.1,0.3-0.2,0.6-0.3,0.9c-0.1,0.3-0.1,0.7-0.1,1c0,0.3,0.1,0.7,0.2,1
			c0.1,0.3,0.3,0.6,0.5,0.8c0.1,0.1,0.2,0.2,0.4,0.3c0.1,0.1,0.2,0.1,0.4,0.2c0.3,0.1,0.5,0.1,0.7,0.2c0.4,0,0.8,0,1.1,0
			c0.2,0,0.4-0.1,0.4-0.1c0,0-0.1,0-0.4,0c-0.2,0-0.6,0-1,0c-0.2,0-0.5-0.1-0.7-0.2c-0.1,0-0.2-0.1-0.3-0.2
			c-0.1-0.1-0.2-0.2-0.3-0.3c-0.2-0.2-0.4-0.5-0.5-0.7c-0.1-0.3-0.2-0.6-0.2-0.9c0-0.7,0.1-1.3,0.3-1.8c0.2-0.5,0.4-1,0.6-1.4
			c0.2-0.4,0.4-0.7,0.5-0.9c0,0,0-0.1,0.1-0.1c-0.3,0.8,0.4,1.5,0.4,1.5c0.3-0.9,0-2,0-2c0.2-0.3,0.5-0.6,0.7-0.9
			c-0.4,0.8-0.6,2,0.6,2.7c0,0-0.2-0.4,0-0.9c0.4-1.2,0.4-1.7-0.1-2.6c0.2-0.3,0.4-0.6,0.6-0.9c0.3-0.5,0.5-1.1,0.7-1.6
			c0,0.2,0.1,0.5,0.2,0.7c0.3,0.6,0.8,1.1,1.4,1.3c0.6,0.2,1.2,0.2,1.8-0.1c0.2,0.1,0.6,0.4,0.7,0.4c0.4,0.3,0.7,0.7,0.9,1.2
			c0.3,0.9,0,1.8-0.8,2.3c-0.9,0.5-2.3-0.1-2.1-1.2c0.1-0.4,0.3-0.7,0.7-0.8c0.2,0,0.5,0.2,0.5,0.5c0,0.7,0.4,0.5,0.4,0.5
			c0,0.2-0.1,0.9,0.3,0.3c0.7-0.9-0.4-1.6-0.4-1.6l0,0c-0.2-0.2-0.5-0.2-0.8-0.1c-0.6,0.1-1,0.6-1.1,1.2c0,0.2,0,0.4,0,0.6
			c0,0-0.1-0.1-0.1-0.2c0,0-0.4-1.1-1.5-0.8c0,0,0.2,0.1,0.3,0.6c0.2,0.8,1.2,0.7,1.4,0.7c0.4,0.8,1.4,1.3,2.2,1
			c0.1,0,0.2-0.1,0.3-0.1c-0.3,0.4-0.4,0.9-0.3,1.5c0,0,0.1-0.3,0.6-0.4c0.9-0.3,0.8-1.7,0.8-1.7l0-0.5l0,0c0.2-0.4,0.3-0.9,0.1-1.3
			c-0.2-0.7-0.5-1.2-1.1-1.6c0,0-0.4-0.3-0.8-0.4c0.2,0,0.5,0,0.9,0c0.3,0,0.5,0,0.8,0c0,0,0,0,0,0c0,0.1,0,0.1,0,0.2
			c0,0.2,0.1,0.4,0.1,0.6c0.1,0.2,0.2,0.3,0.3,0.5c0.1,0.1,0.1,0.1,0.2,0.2c0,0,0.1,0.1,0.1,0.1c0,0,0.1,0,0.2,0.1
			c0.1,0,0.2,0,0.3,0c0.1,0,0.2-0.1,0.3-0.2c0,0,0.1-0.1,0.1-0.1c0,0,0,0,0-0.1l0-0.1c0-0.1,0-0.2,0-0.3c0-0.1,0-0.2-0.1-0.3
			c-0.1-0.1-0.1-0.2-0.2-0.2c-0.2-0.1-0.3-0.2-0.5-0.2c-0.3-0.1-0.5-0.1-0.8-0.1c0-0.1,0-0.2,0-0.2c0.1-0.3,0.3-0.5,0.6-0.7
			c0.1-0.1,0.3-0.1,0.4-0.1c0.1,0,0.3,0,0.4,0.1c0.2,0.1,0.4,0.2,0.6,0.3c0.1,0,0.2,0.1,0.3,0.1C53.8,42.1,53.9,42.1,54,42
			c0.2,0,0.3-0.1,0.3-0.1c0.1-0.1,0.1-0.1,0.1-0.1s0,0-0.1,0.1C54.2,41.9,54.1,42,54,42z M50.4,20.8L50.4,20.8
			C50.4,20.8,50.4,20.8,50.4,20.8L50.4,20.8z M51.5,18.6c0.1-0.2,0.2-0.3,0.3-0.4C51.9,18.1,52,18,52,18c0,0,0.1,0,0.1-0.1
			c0,0,0.1,0,0.1,0c0.1,0,0.2,0,0.2,0c0.1,0,0.1,0.1,0.2,0.1c0,0,0,0.1,0.1,0.1c0,0,0,0,0,0.1l0,0.1c0,0.1,0,0.2,0,0.2
			c0,0.2-0.1,0.3-0.2,0.4c-0.1,0.1-0.3,0.2-0.4,0.2c-0.3,0.1-0.5,0.1-0.7,0.1C51.4,19,51.4,18.8,51.5,18.6z M47.8,14
			c0,0.1-0.1,0.2-0.2,0.4c0,0.1-0.1,0.1-0.1,0.1c0,0-0.1,0.1-0.1,0.1c0,0-0.1,0-0.1,0c0,0-0.1-0.1-0.1-0.1c0-0.1,0-0.2,0.1-0.3
			c0.1-0.1,0.2-0.2,0.3-0.2c0.1-0.1,0.2-0.1,0.3-0.2c0,0,0,0,0,0C47.8,13.8,47.8,13.9,47.8,14z M43.7,7.6c0-0.2,0.1-0.4,0.2-0.5
			C44,7,44.1,7,44.2,6.9c0.1,0,0.2-0.1,0.3,0c0.1,0,0.1,0.1,0.1,0.2c0,0.1,0,0.2,0,0.3c-0.1,0.2-0.3,0.3-0.5,0.4
			c-0.1,0-0.2,0-0.3,0.1C43.7,7.8,43.7,7.7,43.7,7.6z M40.8,13.3L40.8,13.3C40.8,13.3,40.8,13.3,40.8,13.3
			C40.8,13.3,40.8,13.3,40.8,13.3z M34.8,3.5c0,0,0,0.1,0,0.2c0,0.1,0,0.2,0,0.3c0,0.1,0,0.1-0.1,0.2c0,0,0,0,0,0.1c0,0,0,0-0.1,0
			c-0.1,0.1-0.2,0.1-0.3,0.1C34.1,4.3,34,4,34,3.8c0-0.1,0.1-0.3,0.1-0.4c0-0.1,0.1-0.1,0.2-0.1c0.1,0,0.1-0.1,0.2-0.1
			c0.1,0,0.1,0,0.2,0c0,0.1,0.1,0.1,0.1,0.2C34.8,3.4,34.8,3.5,34.8,3.5z M30.7,7.9C30.8,8,30.9,8.2,31,8.5c0,0.1,0.1,0.3,0.1,0.4
			c0,0.1,0.1,0.3,0.1,0.5c0,0,0,0.1,0,0.1c0,0,0,0.1,0,0.1c0,0.1-0.1,0.2-0.1,0.2c-0.1,0.1-0.1,0.1-0.2,0.1c0,0,0,0-0.1,0
			c0,0,0,0-0.1,0c0,0-0.1,0-0.1,0c-0.2,0-0.4-0.1-0.5-0.2C30,9.6,30,9.4,30,9.3C30,9.1,30,9,30.1,8.8c0-0.1,0.1-0.3,0.2-0.4
			c0.1-0.2,0.2-0.4,0.3-0.5c0-0.1,0.1-0.1,0.1-0.1C30.6,7.8,30.7,7.8,30.7,7.9z M31.7,9.3c0.3,0.8-0.5,1.6-1.4,1.5
			c-0.7-0.1-1.1-0.8-0.9-1.4c0.1-0.4,0.3-0.7,0.5-1c0.1-0.1,0.6-0.5,0.6-0.6c0,0,0,0,0,0c0,0,0,0,0,0c0,0-0.1,0.1-0.1,0.1
			c-0.1,0.1-0.2,0.3-0.3,0.5C30.1,8.5,30,8.6,30,8.8c-0.1,0.1-0.1,0.3-0.1,0.5c0,0.1,0,0.2,0,0.3c0,0.1,0,0.2,0.1,0.3
			C30,9.9,30.1,10,30.2,10c0.1,0,0.2,0.1,0.3,0.1c0.1,0,0.2,0,0.3,0c0.1,0,0.2-0.1,0.3-0.2c0.1-0.1,0.1-0.2,0.2-0.3c0,0,0-0.1,0-0.1
			c0,0,0-0.1,0-0.1c0-0.2,0-0.3-0.1-0.5c0-0.2-0.1-0.3-0.1-0.4C31,8.3,30.9,8.2,30.9,8c0.1,0.1,0.2,0.2,0.2,0.2
			C31.4,8.5,31.6,8.9,31.7,9.3z M21.4,3.2c0.1,0,0.1,0,0.2,0.1c0.1,0,0.1,0.1,0.2,0.1c0.1,0.1,0.1,0.2,0.1,0.4
			c0,0.3-0.2,0.5-0.4,0.6c-0.1,0-0.2,0-0.3-0.1c0,0,0,0-0.1,0c0,0,0,0,0-0.1c0,0,0-0.1-0.1-0.2c0-0.1,0-0.2,0-0.3c0-0.1,0-0.1,0-0.2
			c0,0,0-0.1,0.1-0.1c0-0.1,0.1-0.2,0.1-0.2C21.3,3.2,21.3,3.2,21.4,3.2z M25.1,7.9c0,0,0.1-0.1,0.1-0.1c0,0,0.1,0.1,0.1,0.1
			c0.1,0.1,0.2,0.3,0.3,0.5c0.1,0.1,0.1,0.2,0.2,0.4c0,0.1,0.1,0.3,0.1,0.5c0,0.2,0,0.3-0.1,0.5c-0.1,0.1-0.3,0.2-0.5,0.2
			c0,0-0.1,0-0.1,0c0,0,0,0-0.1,0c0,0,0,0-0.1,0c-0.1,0-0.2-0.1-0.2-0.1c-0.1-0.1-0.1-0.1-0.1-0.2c0,0,0-0.1,0-0.1c0,0,0-0.1,0-0.1
			c0-0.2,0-0.3,0.1-0.5c0-0.1,0.1-0.3,0.1-0.4C25,8.2,25.1,8,25.1,7.9z M26.5,9.3c0.1,0.7-0.3,1.3-0.9,1.4c-0.8,0.1-1.6-0.6-1.4-1.5
			c0.1-0.4,0.3-0.7,0.6-1c0,0,0.1-0.1,0.2-0.2c-0.1,0.1-0.1,0.2-0.2,0.4c-0.1,0.1-0.1,0.3-0.1,0.4c0,0.2-0.1,0.3-0.1,0.5
			c0,0,0,0.1,0,0.1c0,0,0,0.1,0,0.1c0,0.1,0.1,0.2,0.2,0.3c0.1,0.1,0.2,0.1,0.3,0.2c0.1,0,0.2,0,0.3,0c0.1,0,0.2,0,0.3-0.1
			c0.1,0,0.2-0.1,0.3-0.2C26,9.8,26,9.7,26,9.6c0-0.1,0-0.2,0-0.3c0-0.2-0.1-0.3-0.1-0.5c-0.1-0.1-0.1-0.3-0.2-0.4
			c-0.1-0.2-0.3-0.4-0.3-0.5c0-0.1-0.1-0.1-0.1-0.1c0,0,0,0,0,0c0,0,0,0,0,0c0,0.1,0.6,0.5,0.6,0.6C26.2,8.6,26.4,8.9,26.5,9.3z
			 M11.8,7.8c-0.2-0.1-0.4-0.2-0.5-0.4c0-0.1,0-0.2,0-0.3c0-0.1,0.1-0.2,0.1-0.2c0.1,0,0.2,0,0.3,0c0.1,0,0.2,0.1,0.2,0.2
			c0.1,0.1,0.2,0.3,0.2,0.5c0,0.1,0,0.2,0,0.2C12,7.8,11.9,7.8,11.8,7.8z M8.3,13.9c0.1,0.1,0.2,0.1,0.3,0.2
			c0.1,0.1,0.1,0.2,0.1,0.3c0,0,0,0.1-0.1,0.1c0,0-0.1,0.1-0.1,0c0,0-0.1,0-0.1-0.1c0,0-0.1-0.1-0.1-0.1c-0.1-0.1-0.1-0.2-0.2-0.4
			c0-0.1-0.1-0.2-0.1-0.3c0,0,0,0,0,0C8.1,13.8,8.2,13.8,8.3,13.9z M3.7,19.1c-0.2-0.1-0.3-0.1-0.4-0.2C3.1,18.8,3,18.7,3,18.5
			c0-0.1,0-0.2,0-0.2l0-0.1c0,0,0,0,0-0.1c0,0,0-0.1,0.1-0.1c0.1-0.1,0.1-0.1,0.2-0.1c0.1,0,0.2,0,0.2,0c0,0,0.1,0,0.1,0
			c0,0,0.1,0,0.1,0.1C3.9,18,4,18.1,4,18.2c0.1,0.1,0.2,0.3,0.3,0.4c0.1,0.2,0.1,0.4,0.1,0.6C4.2,19.2,3.9,19.2,3.7,19.1z M4.3,43.5
			c-0.1,0.2-0.2,0.3-0.3,0.4C4,44,3.9,44.1,3.8,44.1c0,0-0.1,0-0.1,0.1c0,0-0.1,0-0.1,0c-0.1,0-0.2,0-0.2,0c-0.1,0-0.1-0.1-0.2-0.1
			c0,0,0-0.1-0.1-0.1c0,0,0,0,0-0.1l0-0.1c0-0.1,0-0.2,0-0.2c0-0.2,0.1-0.3,0.2-0.4C3.4,43.1,3.5,43,3.7,43c0.3-0.1,0.5-0.1,0.7-0.1
			C4.4,43.1,4.4,43.3,4.3,43.5z M8.1,48.1c0-0.1,0.1-0.2,0.2-0.4c0-0.1,0.1-0.1,0.1-0.1c0,0,0.1-0.1,0.1-0.1c0,0,0.1,0,0.1,0
			c0,0,0.1,0.1,0.1,0.1c0,0.1,0,0.2-0.1,0.3c-0.1,0.1-0.2,0.2-0.3,0.2c-0.1,0.1-0.2,0.1-0.3,0.2c0,0,0,0,0,0
			C8,48.3,8.1,48.2,8.1,48.1z M12.1,54.5c0,0.2-0.1,0.4-0.2,0.5c-0.1,0.1-0.1,0.1-0.2,0.2c-0.1,0-0.2,0.1-0.3,0
			c-0.1,0-0.1-0.1-0.1-0.2c0-0.1,0-0.2,0-0.3c0.1-0.2,0.3-0.3,0.5-0.4c0.1,0,0.2,0,0.3-0.1C12.1,54.3,12.1,54.4,12.1,54.5z M21,58.6
			c0,0,0-0.1,0-0.2c0-0.1,0-0.2,0-0.3c0-0.1,0-0.1,0.1-0.2c0,0,0,0,0-0.1c0,0,0,0,0.1,0c0.1-0.1,0.2-0.1,0.3-0.1
			c0.2,0,0.4,0.3,0.4,0.6c0,0.1-0.1,0.3-0.1,0.4c0,0.1-0.1,0.1-0.2,0.1c-0.1,0-0.1,0.1-0.2,0.1c-0.1,0-0.1,0-0.2,0
			c0-0.1-0.1-0.1-0.1-0.2C21.1,58.7,21.1,58.6,21,58.6z M25.1,54.2c-0.1-0.1-0.1-0.3-0.2-0.6c0-0.1-0.1-0.3-0.1-0.4
			c0-0.1-0.1-0.3-0.1-0.5c0,0,0-0.1,0-0.1c0,0,0-0.1,0-0.1c0-0.1,0.1-0.2,0.1-0.2c0.1-0.1,0.1-0.1,0.2-0.1c0,0,0,0,0.1,0
			c0,0,0,0,0.1,0c0,0,0.1,0,0.1,0c0.2,0,0.4,0.1,0.5,0.2c0.1,0.1,0.1,0.3,0.1,0.5c0,0.2-0.1,0.3-0.1,0.5c0,0.1-0.1,0.3-0.2,0.4
			c-0.1,0.2-0.2,0.4-0.3,0.5c0,0.1-0.1,0.1-0.1,0.1C25.2,54.3,25.2,54.3,25.1,54.2z M24.1,52.8c-0.3-0.8,0.5-1.6,1.4-1.5
			c0.7,0.1,1.1,0.8,0.9,1.4c-0.1,0.4-0.3,0.7-0.5,1c-0.1,0.1-0.6,0.5-0.6,0.6c0,0,0,0,0,0c0,0,0,0,0,0c0,0,0.1-0.1,0.1-0.1
			c0.1-0.1,0.2-0.3,0.3-0.5c0.1-0.1,0.1-0.3,0.2-0.4C26,53.2,26,53,26,52.8c0-0.1,0-0.2,0-0.3c0-0.1,0-0.2-0.1-0.3
			c-0.1-0.1-0.2-0.2-0.3-0.2c-0.1,0-0.2-0.1-0.3-0.1c-0.1,0-0.2,0-0.3,0c-0.1,0-0.2,0.1-0.3,0.2c-0.1,0.1-0.1,0.2-0.2,0.3
			c0,0,0,0.1,0,0.1c0,0,0,0.1,0,0.1c0,0.2,0,0.3,0.1,0.5c0,0.2,0.1,0.3,0.1,0.4c0.1,0.2,0.1,0.3,0.2,0.4c-0.1-0.1-0.2-0.2-0.2-0.2
			C24.5,53.6,24.2,53.2,24.1,52.8z M27.9,49.9C17.5,49.9,9.1,41.4,9.1,31c0-10.4,8.5-18.8,18.8-18.8S46.8,20.7,46.8,31
			C46.8,41.4,38.3,49.9,27.9,49.9z M34.5,58.9c-0.1,0-0.1,0-0.2-0.1c-0.1,0-0.1-0.1-0.2-0.1C34,58.6,34,58.5,34,58.3
			c0-0.3,0.2-0.5,0.4-0.6c0.1,0,0.2,0,0.3,0.1c0,0,0,0,0.1,0c0,0,0,0,0,0.1c0,0,0,0.1,0.1,0.2c0,0.1,0,0.2,0,0.3c0,0.1,0,0.1,0,0.2
			c0,0,0,0.1-0.1,0.1c0,0.1-0.1,0.2-0.1,0.2C34.6,58.9,34.5,58.9,34.5,58.9z M30.7,54.2c0,0-0.1,0.1-0.1,0.1c0,0-0.1-0.1-0.1-0.1
			c-0.1-0.1-0.2-0.3-0.3-0.5c-0.1-0.1-0.1-0.2-0.2-0.4c0-0.1-0.1-0.3-0.1-0.5c0-0.2,0-0.3,0.1-0.5c0.1-0.1,0.3-0.2,0.5-0.2
			c0,0,0.1,0,0.1,0c0,0,0,0,0.1,0c0,0,0,0,0.1,0c0.1,0,0.2,0.1,0.2,0.1c0.1,0.1,0.1,0.1,0.1,0.2c0,0,0,0.1,0,0.1c0,0,0,0.1,0,0.1
			c0,0.2,0,0.3-0.1,0.5c0,0.1-0.1,0.3-0.1,0.4C30.9,53.9,30.8,54.1,30.7,54.2z M29.4,52.8c-0.1-0.7,0.3-1.3,0.9-1.4
			c0.8-0.1,1.6,0.6,1.4,1.5c-0.1,0.4-0.3,0.7-0.6,1c0,0-0.1,0.1-0.2,0.2c0.1-0.1,0.1-0.2,0.2-0.4c0.1-0.1,0.1-0.3,0.1-0.4
			c0-0.2,0.1-0.3,0.1-0.5c0,0,0-0.1,0-0.1c0,0,0-0.1,0-0.1c0-0.1-0.1-0.2-0.2-0.3c-0.1-0.1-0.2-0.1-0.3-0.2c-0.1,0-0.2,0-0.3,0
			c-0.1,0-0.2,0-0.3,0.1c-0.1,0-0.2,0.1-0.3,0.2c-0.1,0.1-0.1,0.2-0.1,0.3c0,0.1,0,0.2,0,0.3c0,0.2,0.1,0.3,0.1,0.5
			c0.1,0.1,0.1,0.3,0.2,0.4c0.1,0.2,0.3,0.4,0.3,0.5c0,0.1,0.1,0.1,0.1,0.1c0,0,0,0,0,0c0,0,0,0,0,0c0-0.1-0.6-0.5-0.6-0.6
			C29.7,53.5,29.5,53.2,29.4,52.8z M44.1,54.3c0.2,0.1,0.4,0.2,0.5,0.4c0,0.1,0,0.2,0,0.3c0,0.1-0.1,0.2-0.1,0.2c-0.1,0-0.2,0-0.3,0
			c-0.1,0-0.2-0.1-0.2-0.2c-0.1-0.1-0.2-0.3-0.2-0.5c0-0.1,0-0.2,0-0.2C43.9,54.3,44,54.3,44.1,54.3z M40.8,48.8
			C40.8,48.8,40.8,48.8,40.8,48.8C40.8,48.8,40.8,48.8,40.8,48.8L40.8,48.8z M47.5,48.2c-0.1-0.1-0.2-0.1-0.3-0.2
			c-0.1-0.1-0.1-0.2-0.1-0.3c0,0,0-0.1,0.1-0.1c0,0,0.1-0.1,0.1,0c0,0,0.1,0,0.1,0.1c0,0,0.1,0.1,0.1,0.1c0.1,0.1,0.1,0.2,0.2,0.4
			c0,0.1,0.1,0.2,0.1,0.3c0,0,0,0,0,0C47.7,48.3,47.6,48.3,47.5,48.2z M52.2,43c0.2,0.1,0.3,0.1,0.4,0.2c0.1,0.1,0.2,0.2,0.2,0.4
			c0,0.1,0,0.2,0,0.2l0,0.1c0,0,0,0,0,0.1c0,0,0,0.1-0.1,0.1c-0.1,0.1-0.1,0.1-0.2,0.1c-0.1,0-0.2,0-0.2,0c0,0-0.1,0-0.1,0
			c0,0-0.1,0-0.1-0.1c-0.1,0-0.1-0.1-0.2-0.2c-0.1-0.1-0.2-0.3-0.3-0.4c-0.1-0.2-0.1-0.4-0.1-0.6C51.7,42.9,51.9,42.9,52.2,43z"/>
		<path class="st0" d="M25.3,50.9C25.5,50.9,25.1,50.9,25.3,50.9L25.3,50.9z"/>
		<path class="st0" d="M15.3,50.7C15.2,51,15.4,50.4,15.3,50.7L15.3,50.7z"/>
		<path class="st0" d="M23.5,50.3c-0.1,0-0.2-0.1-0.3-0.1c0,0,0,0,0,0c0,0,0,0,0,0c0,0-0.1,0-0.1,0c-0.1,0-0.1,0-0.2,0
			c-0.1,0-0.1,0.1-0.2,0.1c-0.1,0-0.1,0.1-0.2,0.1c-0.1,0.1-0.2,0.2-0.3,0.3c-0.1,0.1-0.2,0.2-0.4,0.3c-0.1,0.1-0.3,0.1-0.5,0.1
			c-0.1,0-0.2,0-0.3,0c0,0-0.1,0-0.1,0c0,0-0.1,0-0.1-0.1c-0.1,0-0.2-0.1-0.2-0.2c0,0,0,0,0.1,0c0,0,0.1,0,0.1,0
			c0.1-0.1,0.2-0.1,0.3-0.2c0.1-0.1,0.1-0.2,0.2-0.3c0-0.1,0.1-0.3,0.1-0.4c0-0.1-0.1-0.3-0.1-0.4c-0.1-0.1-0.2-0.2-0.3-0.2
			c-0.1,0-0.3,0-0.4,0c-0.1,0.1-0.2,0.1-0.3,0.2c-0.1,0.1-0.1,0.2-0.2,0.3c0,0.1,0,0.2,0,0.3c0,0.2,0.2,0.4,0.3,0.6
			c-0.2,0-0.4,0.1-0.5,0.1c-0.1,0-0.1,0-0.2,0c-0.1,0-0.1,0-0.2,0c0,0-0.1,0-0.1,0c0,0-0.1,0-0.1,0c-0.4-0.1-0.7-0.3-1-0.5
			c-0.3-0.2-0.6-0.4-0.8-0.6c-0.5-0.4-0.8-0.7-1-1c-0.2-0.2-0.4-0.4-0.4-0.4c0,0,0,0,0.1,0.1c0.1,0.1,0.1,0.2,0.3,0.3
			c0.2,0.3,0.6,0.6,1,1c0.2,0.2,0.5,0.4,0.8,0.6c0.3,0.2,0.6,0.4,1,0.5c0,0,0.1,0,0.2,0c0.1,0,0.1,0,0.2,0c0.1,0,0.1,0,0.2,0
			c0.1,0,0.1,0,0.2,0c0.2,0,0.4,0,0.7-0.1c0,0,0,0,0,0c0.1,0.1,0.2,0.2,0.3,0.3c0,0,0.1,0,0.1,0.1c0,0,0.1,0,0.1,0
			c0.1,0,0.2,0,0.3,0c0.2,0,0.4-0.1,0.5-0.1c0.2-0.1,0.3-0.2,0.4-0.3c0.1-0.1,0.2-0.2,0.3-0.3c0.1,0,0.1-0.1,0.2-0.1
			c0.1,0,0.1-0.1,0.2-0.1c0.1,0,0.1,0,0.2,0c0,0,0.1,0,0.1,0c0,0,0,0,0,0c0,0,0,0,0,0C23.3,50.3,23.4,50.3,23.5,50.3
			c0.1,0.1,0.2,0.2,0.3,0.3c0.1,0.1,0.1,0.1,0.1,0.1c0,0,0,0-0.1-0.1C23.7,50.4,23.6,50.3,23.5,50.3z M20.1,49.8
			c0-0.1,0.1-0.2,0.1-0.3c0.1-0.1,0.1-0.2,0.2-0.2c0.1,0,0.2,0,0.3,0c0.2,0.1,0.3,0.3,0.3,0.5c0,0.1,0,0.2,0,0.3
			c0,0.1-0.1,0.2-0.2,0.3c-0.1,0.1-0.1,0.1-0.2,0.2c0,0,0,0-0.1,0c0,0,0,0-0.1,0c0,0,0,0-0.1,0c0,0,0,0-0.1-0.1
			c-0.1-0.1-0.2-0.3-0.3-0.5C20.1,50,20.1,49.9,20.1,49.8z"/>
		<path class="st0" d="M16.9,52.4c0.3,0.5,0.7,0.5,0.7,0.5s0.1-0.2,0-0.7c-0.1-0.5-0.5-1.2-1.4-2.3C16.2,49.9,16.3,51.5,16.9,52.4z"
			/>
		<path class="st0" d="M6,47.4C5.9,47.4,6.5,47.5,6,47.4L6,47.4z"/>
		<path class="st0" d="M9.8,43.9c0.6-0.4,0.4-2.2,0.2-3c0,0,0.2,1.6-0.7,2.4s0.2,1.5,0.2,1.5S9.2,44.3,9.8,43.9z"/>
		<path class="st0" d="M4.1,39.6c1.6,0,3.1-1.3,3.6-2.8c-0.1,0.3-0.3,1.6,0.7,2c0,0-0.5-0.5,0-1c0.5-0.5,0.1-1.7-0.5-2.5
			c-0.1-0.9-0.4-1.9-1-2.6c-0.3-0.4-0.7-0.8-1.2-1c-0.1,0-1.4-0.4-1.4-0.2c0,0,1,0.2,1.1,0.2c0.4,0.2,0.8,0.5,1.1,0.8
			c0.5,0.7,0.9,1.6,1,2.4c0.3,2-1.1,3.8-3.1,4.2c-1.5,0.2-3.1-1-3.3-2.5c0.2-0.2,0.9-0.8,1.8-0.4c0,0-0.9-1.4-1.8-0.3
			c0-0.1,0-0.2,0.1-0.2C1.4,34.8,2.3,34,3.3,34c0.8,0,1.7,0.7,1.8,1.6c0,0.2,0,0.4,0,0.5c-0.1,0.2-0.3,0.5-0.6,0.7
			c-1.1,0.9-0.4,0.4-0.7,1.3c-0.2,0.8,3.6-1.5,1.2-3.8c-0.6-0.7-1.6-0.9-2.5-0.6c0,0,0.1,0,0.1-0.1c0.1-0.1,0.3-0.2,0.4-0.4
			c0.1-0.2,0.2-0.4,0.3-0.7c0-0.1,0-0.3,0-0.4c0-0.1-0.1-0.3-0.1-0.4c-0.1-0.3-0.4-0.5-0.7-0.5c-0.1,0-0.3-0.1-0.5,0
			c-0.2,0-0.3,0.1-0.4,0.2C1.2,31.7,1.1,32,1,32.3c0,0.1,0,0.3,0.1,0.4c0.1,0.1,0.1,0.3,0.3,0.4c0.1,0.1,0.3,0.2,0.4,0.2
			c0.1,0,0.3,0,0.4-0.1c0.1-0.1,0.2-0.1,0.3-0.2c0.1-0.1,0.1-0.2,0.1-0.3c0-0.2,0-0.2-0.1-0.2c0,0,0,0.1,0,0.2
			c0,0.1-0.1,0.3-0.3,0.3C2,33,1.8,33,1.6,32.9c-0.1-0.1-0.2-0.1-0.2-0.2c0-0.1-0.1-0.2,0-0.3c0-0.2,0.1-0.4,0.3-0.5
			c0.2-0.1,0.4-0.2,0.7-0.1c0.2,0.1,0.5,0.2,0.6,0.4C3,32.1,3,32.2,3.1,32.4c0,0.1,0,0.2,0,0.3c0,0.2-0.1,0.4-0.2,0.6
			c-0.1,0.2-0.2,0.3-0.3,0.4c-0.1,0-0.1,0.1-0.2,0.1c-0.1,0-0.1,0-0.1,0.1c-0.1,0-0.1,0-0.1,0s0,0,0.1,0c0,0,0,0,0.1,0
			c-0.1,0-0.2,0.1-0.3,0.1c-1.1,0.6-1.7,2-1.3,3.2c0.3,0.9,1,1.7,1.8,2.1l0,0c0,0-1.7-0.7-2.2,0.8c0,0,0.4-0.5,1.1,0
			C2.1,40.6,3.2,40.2,4.1,39.6z"/>
		<path class="st0" d="M23.2,55.3c0,0-1.3,0-1.8,1C21.4,56.3,22.5,56.5,23.2,55.3z"/>
		<path class="st0" d="M24.8,59.6C24.8,59.6,24.8,59.6,24.8,59.6C24.8,59.6,24.8,59.6,24.8,59.6C24.8,59.6,24.8,59.6,24.8,59.6z"/>
		<path class="st0" d="M2.7,36.7C2.7,36.7,2.8,36.7,2.7,36.7c0.1,0,0.1,0,0.1,0S2.8,36.6,2.7,36.7C2.8,36.6,2.7,36.6,2.7,36.7
			c-0.1,0-0.2,0-0.3,0.2c-0.1,0.1-0.2,0.4-0.2,0.6c0,0.2,0.1,0.5,0.3,0.8c0.1,0.1,0.2,0.2,0.4,0.3c0.1,0.1,0.3,0.1,0.5,0.2
			c0.4,0,0.7,0,1.1-0.1c0.4-0.1,0.8-0.3,1.2-0.5c0.4-0.3,0.7-0.6,0.9-1c0.2-0.4,0.4-0.8,0.5-1.3c0.1-0.4,0-0.9,0-1.3
			c-0.1-0.4-0.2-0.8-0.4-1.1c-0.2-0.3-0.4-0.5-0.7-0.7c-0.5-0.4-1-0.5-1.3-0.6c-0.2,0-0.3-0.1-0.4-0.1c-0.1,0-0.1,0-0.1,0
			c0,0,0.2,0,0.5,0.1c0.3,0.1,0.8,0.3,1.2,0.6c0.2,0.2,0.4,0.4,0.6,0.7c0.2,0.3,0.3,0.6,0.4,1c0.1,0.4,0.1,0.8,0,1.2
			c-0.1,0.4-0.2,0.8-0.4,1.2c-0.2,0.4-0.5,0.7-0.9,1c-0.3,0.2-0.7,0.4-1.1,0.5c-0.4,0.1-0.8,0.1-1.1,0.1c-0.3,0-0.6-0.2-0.8-0.4
			c-0.2-0.2-0.3-0.5-0.3-0.7c0-0.2,0-0.4,0.1-0.6C2.5,36.8,2.6,36.7,2.7,36.7z"/>
		<path class="st0" d="M39.7,35.9c0.6,1,0.9,1.8,0.9,2.5c0,1-0.9,1.6-2.8,1.6c-1.8,0-4.2-0.6-7.1-1.7l-7.1-2.8
			c0.4-0.6,0.9-1.3,1.5-2.2c0.6-0.9,0.9-1.4,1.1-1.7c0.4-0.2,0.7-0.3,0.9-0.4c0.1-0.1,0.3-0.1,0.5-0.2c0.2-0.1,0.8-0.4,1.5-0.8
			c6-3.1,9-6,9-8.7c0-0.7-0.2-1.2-0.6-1.7c-0.4-0.4-0.9-0.7-1.5-0.7c-3.2,0-6,2.9-8.6,8.8c-0.1,0.2-0.3,0.8-0.7,1.8
			c-0.4,1-0.7,1.5-0.8,1.7c-0.6,0.1-1.2,0.2-1.8,0.2c0.3-0.6,1-2,2-4.2s1.8-3.7,2.3-4.5c1.6-2.5,3.2-3.7,5-3.7c0.2,0,0.3,0,0.3-0.1
			s-0.1-0.1-0.3-0.1c-1.8,0-3.5,1.2-5.1,3.6c-0.7,1-1.5,2.6-2.5,4.7c-1,2.1-1.7,3.6-2.1,4.3c-1.5,0-2.7-0.4-3.8-1.1
			c-1.3-0.8-1.9-1.9-1.9-3.2c0-1.3,0.6-2.2,1.7-2.6c0,0,0-0.1,0-0.1c0,0,0-0.1-0.1-0.1s-0.1,0-0.2,0.1c-1.5,0.8-2.3,2-2.3,3.4
			c0,2.7,1.9,4.1,5.8,4.1c0.3,0,0.5,0,0.6,0c-0.6,1.2-1.2,2.2-1.8,2.9c-1.7-0.5-3.1-0.8-4.3-0.8s-2.1,0.2-2.9,0.6
			c-1,0.5-1.5,1.3-1.5,2.3c0,0.7,0.4,1.3,1.1,1.9c0.8,0.5,1.5,0.8,2.3,0.8c1.4,0,2.6-0.3,3.7-1c1.1-0.7,2.1-1.6,3.2-2.9
			c0.7,0.3,2.1,1,4,2.1c2,1.1,3.6,1.9,5,2.5c1.4,0.6,2.6,0.9,3.7,0.9c1.1,0,2.2-0.3,3.2-0.8c1.2-0.6,1.8-1.4,1.8-2.4
			c0-0.4-0.1-0.8-0.4-1.3C40.3,36.4,40,36.1,39.7,35.9z M28.5,27.8c3.1-5.2,5.6-7.9,7.7-7.9c0.4,0,0.8,0.1,1.1,0.3
			c0.3,0.2,0.5,0.5,0.5,0.9c0,1.4-1.5,3.4-4.6,5.9c-2.7,2.2-5,3.6-6.7,4.2C26.9,30.5,27.6,29.4,28.5,27.8z M20.2,38
			c-1.3,0.7-2.5,1-3.3,1c-0.9,0-1.6-0.2-2.2-0.6c-0.7-0.5-1.1-1.1-1.1-1.8s0.4-1.3,1.3-1.7c0.8-0.4,1.7-0.6,2.7-0.6
			c0.9,0,2.3,0.3,4,0.8C20,37,18.5,38,16.8,38c-0.3,0-0.4,0-0.4,0.1s0.1,0.1,0.4,0.1c1.8,0,3.5-1,5-2.9c0.6,0.2,1,0.4,1.2,0.5
			C22.4,36.5,21.5,37.3,20.2,38z M23.2,35.4c-0.6-0.2-1.1-0.3-1.2-0.4c0.7-1,1.3-2,1.9-3c0.3,0,1-0.1,1.8-0.2
			C24.3,34,23.5,35.2,23.2,35.4z"/>
	</g>
</g>
<g id="Layer_3">
	<g>
		<path class="st1" d="M76.3,14.8V6.2h1.4v7.4h3.6v1.2H76.3z"/>
		<path class="st1" d="M90.2,6.2v5.5c0,0.6-0.1,1.2-0.4,1.7s-0.7,0.8-1.2,1.1s-1.1,0.4-1.8,0.4c-1.1,0-1.9-0.3-2.5-0.8
			s-0.9-1.3-0.9-2.3V6.2h1.4v5.4c0,0.7,0.2,1.2,0.5,1.6s0.8,0.5,1.5,0.5c1.3,0,2-0.7,2-2.1V6.2H90.2z"/>
		<path class="st1" d="M99.4,14.8h-1.6l-2.1-3.5l-2.2,3.5H92l2.8-4.4l-2.7-4.1h1.6l2,3.2l2-3.2h1.5l-2.7,4.1L99.4,14.8z"/>
		<path class="st1" d="M108,6.2v5.5c0,0.6-0.1,1.2-0.4,1.7s-0.7,0.8-1.2,1.1s-1.1,0.4-1.8,0.4c-1.1,0-1.9-0.3-2.5-0.8
			s-0.9-1.3-0.9-2.3V6.2h1.4v5.4c0,0.7,0.2,1.2,0.5,1.6s0.8,0.5,1.5,0.5c1.3,0,2-0.7,2-2.1V6.2H108z"/>
		<path class="st1" d="M112.3,11.4v3.4h-1.4V6.2h2.4c1.1,0,1.9,0.2,2.5,0.6s0.8,1,0.8,1.9c0,1.1-0.6,1.8-1.7,2.3l2.4,3.8h-1.6
			l-2.1-3.4H112.3z M112.3,10.2h1c0.7,0,1.1-0.1,1.4-0.4s0.4-0.6,0.4-1.1c0-0.5-0.2-0.8-0.5-1s-0.8-0.3-1.4-0.3h-0.9V10.2z"/>
		<path class="st1" d="M121.7,10.1l2-3.9h1.5l-2.9,5.2v3.3H121v-3.3l-2.8-5.3h1.5L121.7,10.1z"/>
		<path class="st1" d="M83,34.8h-1.4v-3.9h-3.9v3.9h-1.4v-8.6h1.4v3.5h3.9v-3.5H83V34.8z"/>
		<path class="st1" d="M93.6,30.5c0,1.4-0.3,2.5-1,3.3s-1.7,1.2-3,1.2c-1.3,0-2.3-0.4-3-1.2s-1-1.9-1-3.3s0.3-2.5,1-3.3
			s1.7-1.1,3-1.1c1.3,0,2.3,0.4,3,1.2S93.6,29.1,93.6,30.5z M87.1,30.5c0,1.1,0.2,1.9,0.6,2.4s1.1,0.8,1.9,0.8
			c0.8,0,1.5-0.3,1.9-0.8s0.6-1.3,0.6-2.4c0-1.1-0.2-1.8-0.6-2.4s-1-0.8-1.9-0.8c-0.8,0-1.5,0.3-1.9,0.8S87.1,29.4,87.1,30.5z"/>
		<path class="st1" d="M99.1,34.8h-1.4v-7.4h-2.5v-1.2h6.4v1.2h-2.5V34.8z"/>
		<path class="st1" d="M108.5,34.8h-4.8v-8.6h4.8v1.2h-3.4v2.3h3.2v1.2h-3.2v2.7h3.4V34.8z"/>
		<path class="st1" d="M111.1,34.8v-8.6h1.4v7.4h3.6v1.2H111.1z"/>
		<path class="st1" d="M123.2,32.5c0,0.8-0.3,1.4-0.8,1.8s-1.3,0.7-2.3,0.7s-1.8-0.2-2.4-0.5v-1.3c0.4,0.2,0.8,0.3,1.2,0.4
			s0.8,0.2,1.2,0.2c0.6,0,1-0.1,1.2-0.3s0.4-0.5,0.4-0.8c0-0.3-0.1-0.6-0.4-0.8s-0.7-0.5-1.5-0.8c-0.8-0.3-1.3-0.7-1.7-1.1
			s-0.5-0.9-0.5-1.5c0-0.7,0.3-1.3,0.8-1.7s1.2-0.6,2-0.6c0.8,0,1.6,0.2,2.4,0.5l-0.4,1.1c-0.8-0.3-1.4-0.5-2-0.5
			c-0.5,0-0.8,0.1-1,0.3s-0.4,0.5-0.4,0.8c0,0.2,0,0.4,0.1,0.6s0.2,0.3,0.5,0.4s0.6,0.3,1.2,0.6c0.6,0.3,1.1,0.5,1.4,0.7
			s0.5,0.5,0.6,0.8S123.2,32.1,123.2,32.5z"/>
		<path class="st1" d="M83.4,54.8h-1.7L77.5,48h0l0,0.4c0.1,0.7,0.1,1.4,0.1,2v4.5h-1.3v-8.6H78l4.2,6.8h0c0-0.1,0-0.4,0-1
			s0-1,0-1.3v-4.5h1.3V54.8z"/>
		<path class="st1" d="M91.2,54.8h-4.8v-8.6h4.8v1.2h-3.4v2.3H91v1.2h-3.2v2.7h3.4V54.8z"/>
		<path class="st1" d="M96.8,54.8h-1.4v-7.4h-2.5v-1.2h6.4v1.2h-2.5V54.8z"/>
		<path class="st1" d="M109.2,54.8h-1.5l-1.5-5.1c-0.1-0.2-0.1-0.5-0.2-1s-0.2-0.7-0.2-0.9c0,0.3-0.1,0.6-0.2,1s-0.2,0.7-0.2,0.9
			l-1.4,5.1h-1.5l-1.1-4.3l-1.1-4.3h1.4l1.2,5c0.2,0.8,0.3,1.5,0.4,2.1c0-0.3,0.1-0.7,0.2-1.1s0.2-0.7,0.2-1l1.4-5h1.4l1.4,5
			c0.1,0.5,0.3,1.2,0.4,2.1c0.1-0.6,0.2-1.3,0.4-2.1l1.2-5h1.4L109.2,54.8z"/>
		<path class="st1" d="M121,50.5c0,1.4-0.3,2.5-1,3.3s-1.7,1.2-3,1.2c-1.3,0-2.3-0.4-3-1.2s-1-1.9-1-3.3s0.3-2.5,1-3.3
			s1.7-1.1,3-1.1c1.3,0,2.3,0.4,3,1.2S121,49.1,121,50.5z M114.4,50.5c0,1.1,0.2,1.9,0.6,2.4s1.1,0.8,1.9,0.8c0.8,0,1.5-0.3,1.9-0.8
			s0.6-1.3,0.6-2.4c0-1.1-0.2-1.8-0.6-2.4s-1-0.8-1.9-0.8c-0.8,0-1.5,0.3-1.9,0.8S114.4,49.4,114.4,50.5z"/>
		<path class="st1" d="M124.9,51.4v3.4h-1.4v-8.6h2.4c1.1,0,1.9,0.2,2.5,0.6s0.8,1,0.8,1.9c0,1.1-0.6,1.8-1.7,2.3l2.4,3.8h-1.6
			l-2.1-3.4H124.9z M124.9,50.2h1c0.7,0,1.1-0.1,1.4-0.4s0.4-0.6,0.4-1.1c0-0.5-0.2-0.8-0.5-1s-0.8-0.3-1.4-0.3h-0.9V50.2z"/>
		<path class="st1" d="M138.5,54.8h-1.6l-2.7-3.9l-0.8,0.7v3.2h-1.4v-8.6h1.4v4.1c0.4-0.5,0.8-0.9,1.1-1.4l2.3-2.7h1.6
			c-1.5,1.8-2.6,3-3.2,3.8L138.5,54.8z"/>
	</g>
</g>
</svg>
